<svg width="56" height="57" viewBox="0 0 56 57" fill="none" xmlns="http://www.w3.org/2000/svg">
<path d="M21.5 15.582L15 12.082L8 15.582L7.5 24.082L14.5 27.582L22 24.582L21.5 15.582Z" fill="#EC1818"/>
<path d="M39.375 47.517C39.1429 47.517 38.9204 47.6092 38.7563 47.7733C38.5922 47.9374 38.5 48.16 38.5 48.392V53.082H3.5V4.08203H29.75V11.957C29.75 12.1891 29.8422 12.4117 30.0063 12.5757C30.1704 12.7398 30.3929 12.832 30.625 12.832H38.5V28.022C38.5 28.2541 38.5922 28.4767 38.7563 28.6408C38.9204 28.8048 39.1429 28.897 39.375 28.897C39.6071 28.897 39.8296 28.8048 39.9937 28.6408C40.1578 28.4767 40.25 28.2541 40.25 28.022V11.957C40.25 11.725 40.1577 11.5025 39.9936 11.3384L31.2436 2.58841C31.0796 2.4243 30.857 2.33208 30.625 2.33203H2.625C2.39294 2.33203 2.17038 2.42422 2.00628 2.58831C1.84219 2.75241 1.75 2.97497 1.75 3.20703V53.957C1.75 54.1891 1.84219 54.4117 2.00628 54.5758C2.17038 54.7398 2.39294 54.832 2.625 54.832H39.375C39.6071 54.832 39.8296 54.7398 39.9937 54.5758C40.1578 54.4117 40.25 54.1891 40.25 53.957V48.392C40.25 48.16 40.1578 47.9374 39.9937 47.7733C39.8296 47.6092 39.6071 47.517 39.375 47.517ZM31.5 11.082V5.31928L37.2627 11.082H31.5Z" fill="#111111"/>
<path d="M14.875 28.705C15.0121 28.7048 15.1473 28.6724 15.2696 28.6105L22.2696 25.0755C22.414 25.0025 22.5354 24.8909 22.6202 24.7531C22.705 24.6153 22.7499 24.4567 22.75 24.2949V15.4574C22.7501 15.2948 22.7048 15.1354 22.6194 14.9971C22.5339 14.8588 22.4116 14.747 22.2661 14.6743L15.2661 11.1743C15.1447 11.1136 15.0108 11.082 14.875 11.082C14.7392 11.082 14.6053 11.1136 14.4839 11.1743L7.48388 14.6743C7.33842 14.747 7.2161 14.8588 7.13063 14.9971C7.04516 15.1354 6.99992 15.2948 7 15.4574V24.2074C6.99999 24.3678 7.04405 24.5251 7.12738 24.6622C7.21071 24.7992 7.3301 24.9107 7.4725 24.9845L14.4725 28.6061C14.5967 28.6712 14.7348 28.7052 14.875 28.705ZM21 23.7559L15.75 26.4081V19.4956L21 16.8706V23.7559ZM14.875 12.9357L19.9185 15.4574L14.875 17.9792L13.3315 17.2074L15.2661 16.2449L14.4839 14.6787L11.375 16.2292L9.8315 15.4574L14.875 12.9357ZM14 26.3949L8.75 23.6824V16.8732L10.5 17.7482V20.7074H12.25V18.6232L14 19.4982V26.3949Z" fill="#111111"/>
<path d="M34.125 16.332H30.625C30.3929 16.332 30.1704 16.4242 30.0063 16.5883C29.8422 16.7524 29.75 16.975 29.75 17.207C29.75 17.4391 29.8422 17.6617 30.0063 17.8258C30.1704 17.9898 30.3929 18.082 30.625 18.082H34.125C34.3571 18.082 34.5796 17.9898 34.7437 17.8258C34.9078 17.6617 35 17.4391 35 17.207C35 16.975 34.9078 16.7524 34.7437 16.5883C34.5796 16.4242 34.3571 16.332 34.125 16.332Z" fill="#111111"/>
<path d="M34.125 19.832H27.125C26.8929 19.832 26.6704 19.9242 26.5063 20.0883C26.3422 20.2524 26.25 20.475 26.25 20.707C26.25 20.9391 26.3422 21.1617 26.5063 21.3258C26.6704 21.4898 26.8929 21.582 27.125 21.582H34.125C34.3571 21.582 34.5796 21.4898 34.7437 21.3258C34.9078 21.1617 35 20.9391 35 20.707C35 20.475 34.9078 20.2524 34.7437 20.0883C34.5796 19.9242 34.3571 19.832 34.125 19.832Z" fill="#111111"/>
<path d="M34.125 23.332H27.125C26.8929 23.332 26.6704 23.4242 26.5063 23.5883C26.3422 23.7524 26.25 23.975 26.25 24.207C26.25 24.4391 26.3422 24.6617 26.5063 24.8258C26.6704 24.9898 26.8929 25.082 27.125 25.082H34.125C34.3571 25.082 34.5796 24.9898 34.7437 24.8258C34.9078 24.6617 35 24.4391 35 24.207C35 23.975 34.9078 23.7524 34.7437 23.5883C34.5796 23.4242 34.3571 23.332 34.125 23.332Z" fill="#111111"/>
<path d="M27.125 18.082H28C28.2321 18.082 28.4546 17.9898 28.6187 17.8258C28.7828 17.6617 28.875 17.4391 28.875 17.207C28.875 16.975 28.7828 16.7524 28.6187 16.5883C28.4546 16.4242 28.2321 16.332 28 16.332H27.125C26.8929 16.332 26.6704 16.4242 26.5063 16.5883C26.3422 16.7524 26.25 16.975 26.25 17.207C26.25 17.4391 26.3422 17.6617 26.5063 17.8258C26.6704 17.9898 26.8929 18.082 27.125 18.082Z" fill="#111111"/>
<path d="M34.125 46.957H25.375C25.1429 46.957 24.9204 47.0492 24.7563 47.2133C24.5922 47.3774 24.5 47.6 24.5 47.832C24.5 48.0641 24.5922 48.2867 24.7563 48.4508C24.9204 48.6148 25.1429 48.707 25.375 48.707H34.125C34.3571 48.707 34.5796 48.6148 34.7437 48.4508C34.9078 48.2867 35 48.0641 35 47.832C35 47.6 34.9078 47.3774 34.7437 47.2133C34.5796 47.0492 34.3571 46.957 34.125 46.957Z" fill="#111111"/>
<path d="M34.125 49.582H28.875C28.6429 49.582 28.4204 49.6742 28.2563 49.8383C28.0922 50.0024 28 50.225 28 50.457C28 50.6891 28.0922 50.9117 28.2563 51.0758C28.4204 51.2398 28.6429 51.332 28.875 51.332H34.125C34.3571 51.332 34.5796 51.2398 34.7437 51.0758C34.9078 50.9117 35 50.6891 35 50.457C35 50.225 34.9078 50.0024 34.7437 49.8383C34.5796 49.6742 34.3571 49.582 34.125 49.582Z" fill="#111111"/>
<path d="M42.2922 34.038H46.0002C46.9202 34.038 47.6442 34.258 48.1722 34.698C48.7082 35.13 48.9762 35.778 48.9762 36.642C48.9762 37.458 48.7282 38.106 48.2322 38.586C47.7362 39.058 47.0602 39.294 46.2042 39.294H43.7922V42.582H42.2922V34.038ZM43.7922 35.286V38.082H45.8802C46.9682 38.082 47.5122 37.614 47.5122 36.678C47.5122 35.75 46.9242 35.286 45.7482 35.286H43.7922Z" fill="black"/>
<path d="M45.5 28.582C43.5964 28.582 41.7355 29.1465 40.1526 30.2041C38.5698 31.2617 37.3362 32.765 36.6077 34.5237C35.8792 36.2824 35.6886 38.2177 36.0599 40.0848C36.4313 41.9518 37.348 43.6668 38.6941 45.0129C40.0402 46.359 41.7552 47.2757 43.6223 47.6471C45.4893 48.0185 47.4246 47.8279 49.1833 47.0994C50.9421 46.3709 52.4453 45.1372 53.5029 43.5544C54.5605 41.9716 55.125 40.1107 55.125 38.207C55.122 35.6552 54.107 33.2088 52.3026 31.4045C50.4982 29.6001 48.0518 28.585 45.5 28.582V28.582ZM45.5 46.082C43.9425 46.082 42.4199 45.6202 41.1249 44.7548C39.8298 43.8895 38.8205 42.6596 38.2245 41.2207C37.6284 39.7817 37.4725 38.1983 37.7763 36.6707C38.0802 35.1431 38.8302 33.7399 39.9315 32.6386C41.0329 31.5372 42.4361 30.7872 43.9637 30.4833C45.4913 30.1795 47.0747 30.3354 48.5136 30.9315C49.9526 31.5275 51.1825 32.5369 52.0478 33.8319C52.9131 35.1269 53.375 36.6495 53.375 38.207C53.3727 40.2949 52.5422 42.2966 51.0659 43.7729C49.5896 45.2493 47.5879 46.0797 45.5 46.082Z" fill="#111111"/>
<path d="M9.625 32.957H7.875C7.64294 32.957 7.42038 33.0492 7.25628 33.2133C7.09219 33.3774 7 33.6 7 33.832C7 34.0641 7.09219 34.2867 7.25628 34.4508C7.42038 34.6148 7.64294 34.707 7.875 34.707H9.625C9.85706 34.707 10.0796 34.6148 10.2437 34.4508C10.4078 34.2867 10.5 34.0641 10.5 33.832C10.5 33.6 10.4078 33.3774 10.2437 33.2133C10.0796 33.0492 9.85706 32.957 9.625 32.957Z" fill="#111111"/>
<path d="M30.625 32.957H13.125C12.8929 32.957 12.6704 33.0492 12.5063 33.2133C12.3422 33.3774 12.25 33.6 12.25 33.832C12.25 34.0641 12.3422 34.2867 12.5063 34.4508C12.6704 34.6148 12.8929 34.707 13.125 34.707H30.625C30.8571 34.707 31.0796 34.6148 31.2437 34.4508C31.4078 34.2867 31.5 34.0641 31.5 33.832C31.5 33.6 31.4078 33.3774 31.2437 33.2133C31.0796 33.0492 30.8571 32.957 30.625 32.957Z" fill="#111111"/>
<path d="M9.625 36.457H7.875C7.64294 36.457 7.42038 36.5492 7.25628 36.7133C7.09219 36.8774 7 37.1 7 37.332C7 37.5641 7.09219 37.7867 7.25628 37.9508C7.42038 38.1148 7.64294 38.207 7.875 38.207H9.625C9.85706 38.207 10.0796 38.1148 10.2437 37.9508C10.4078 37.7867 10.5 37.5641 10.5 37.332C10.5 37.1 10.4078 36.8774 10.2437 36.7133C10.0796 36.5492 9.85706 36.457 9.625 36.457Z" fill="#111111"/>
<path d="M30.625 36.457H13.125C12.8929 36.457 12.6704 36.5492 12.5063 36.7133C12.3422 36.8774 12.25 37.1 12.25 37.332C12.25 37.5641 12.3422 37.7867 12.5063 37.9508C12.6704 38.1148 12.8929 38.207 13.125 38.207H30.625C30.8571 38.207 31.0796 38.1148 31.2437 37.9508C31.4078 37.7867 31.5 37.5641 31.5 37.332C31.5 37.1 31.4078 36.8774 31.2437 36.7133C31.0796 36.5492 30.8571 36.457 30.625 36.457Z" fill="#111111"/>
<path d="M9.625 39.957H7.875C7.64294 39.957 7.42038 40.0492 7.25628 40.2133C7.09219 40.3774 7 40.6 7 40.832C7 41.0641 7.09219 41.2867 7.25628 41.4508C7.42038 41.6148 7.64294 41.707 7.875 41.707H9.625C9.85706 41.707 10.0796 41.6148 10.2437 41.4508C10.4078 41.2867 10.5 41.0641 10.5 40.832C10.5 40.6 10.4078 40.3774 10.2437 40.2133C10.0796 40.0492 9.85706 39.957 9.625 39.957Z" fill="#111111"/>
<path d="M13.125 41.707H30.625C30.8571 41.707 31.0796 41.6148 31.2437 41.4508C31.4078 41.2867 31.5 41.0641 31.5 40.832C31.5 40.6 31.4078 40.3774 31.2437 40.2133C31.0796 40.0492 30.8571 39.957 30.625 39.957H13.125C12.8929 39.957 12.6704 40.0492 12.5063 40.2133C12.3422 40.3774 12.25 40.6 12.25 40.832C12.25 41.0641 12.3422 41.2867 12.5063 41.4508C12.6704 41.6148 12.8929 41.707 13.125 41.707V41.707Z" fill="#111111"/>
<rect x="41.3682" y="40.582" width="4" height="1" fill="#111111"/>
</svg>
