<svg width="56" height="51" viewBox="0 0 56 51" fill="none" xmlns="http://www.w3.org/2000/svg">
<g clip-path="url(#clip0_4389_10766)">
<path d="M55.0256 45.9277L54.5427 37.7719C54.3229 34.6419 52.0727 31.9449 48.8101 30.9011L37.6889 27.343C37.1774 27.1793 36.5987 27.2981 36.2151 27.646L35.8587 27.9692L33.4373 26.8688L33.4372 24.9328C35.767 23.5166 37.6317 21.0884 38.1398 18.6787C38.1451 18.654 38.1497 18.6294 38.1546 18.6047C38.1709 18.5227 38.1863 18.4407 38.1995 18.3588C38.2121 18.2818 38.2235 18.2049 38.233 18.1281C38.2369 18.0957 38.2401 18.0635 38.2436 18.0312C38.2524 17.9509 38.2595 17.8709 38.2649 17.7912C38.2665 17.7691 38.2681 17.747 38.2694 17.7249C38.2706 17.7036 38.2728 17.6821 38.2737 17.6608H38.8717C40.044 17.6608 40.9978 16.7974 40.9978 15.7362V13.38C40.9978 13.27 40.9875 13.1615 40.9673 13.0547C40.9867 12.9923 40.9978 12.9268 40.9978 12.8588C40.9978 12.2135 40.8773 11.5937 40.6586 11.0148V8.45293C40.6585 3.83717 36.5103 0.0820312 31.4115 0.0820312H24.589C19.4901 0.0820312 15.342 3.83717 15.342 8.45293V11.0148C15.1232 11.5938 15.0028 12.2136 15.0028 12.8588C15.0028 12.9268 15.014 12.9923 15.0333 13.0547C15.0131 13.1615 15.0028 13.27 15.0028 13.38V15.7362C15.0028 16.7974 15.9565 17.6608 17.1288 17.6608H17.7261C17.7272 17.6867 17.7296 17.7129 17.7312 17.7389C17.7324 17.7611 17.7339 17.7832 17.7354 17.8053C17.741 17.8879 17.7483 17.9707 17.7575 18.0538C17.7605 18.0807 17.7629 18.1075 17.7662 18.1346C17.7778 18.2288 17.7913 18.3233 17.8073 18.418C17.8163 18.4718 17.8273 18.5257 17.8377 18.5796C17.8455 18.6195 17.8531 18.6593 17.8616 18.6992C17.8761 18.7673 17.8916 18.8355 17.9081 18.9036C17.9113 18.9166 17.9148 18.9296 17.918 18.9426C18.4974 21.2692 20.3141 23.5836 22.5631 24.9519L22.5629 26.8688L20.1422 27.9694L19.7854 27.646C19.4019 27.2982 18.8232 27.1793 18.3117 27.3431L7.19023 30.9011C3.92768 31.9449 1.67761 34.6419 1.45722 37.779L0.975205 45.9205C0.931454 46.5439 1.177 47.1626 1.64896 47.6179C2.12014 48.0724 2.78525 48.3331 3.47355 48.3331H14.2853V49.6541C14.2853 50.2729 14.8414 50.7762 15.5248 50.7762H40.4755C41.159 50.7762 41.7151 50.2729 41.7151 49.6541V48.3331H52.5268C53.2151 48.3331 53.8801 48.0724 54.3514 47.6179C54.8234 47.1626 55.0689 46.544 55.0256 45.9277ZM39.4035 15.7362C39.4035 16.0016 39.1649 16.2177 38.8716 16.2177H38.2787V13.5804H39.4035V15.7362ZM24.589 1.52514H31.4116C35.6314 1.52514 39.0645 4.63293 39.0645 8.45293V8.74789C39.0521 8.7371 39.039 8.7271 39.0265 8.7164C38.97 8.66779 38.9125 8.61996 38.854 8.57333C38.8452 8.5663 38.8363 8.55937 38.8274 8.55244C37.8644 7.79252 36.6461 7.29161 35.3051 7.1729C35.2965 7.17211 35.2876 7.17181 35.279 7.17112C35.1866 7.16329 35.0937 7.15656 35.0002 7.1523C34.896 7.14755 34.7913 7.14508 34.6862 7.14508H21.3146C21.2095 7.14508 21.1048 7.14755 21.0006 7.1523C20.9071 7.15646 20.8142 7.1632 20.7218 7.17112C20.7132 7.17191 20.7043 7.17211 20.6957 7.1729C19.3546 7.29161 18.1364 7.79252 17.1733 8.55244C17.1645 8.55937 17.1555 8.5663 17.1468 8.57333C17.0883 8.62006 17.0308 8.66779 16.9743 8.7164C16.9618 8.7271 16.9487 8.7371 16.9363 8.74789V8.45293H16.9361C16.9361 4.63293 20.3692 1.52514 24.589 1.52514ZM17.7216 16.2177H17.1287C16.8354 16.2177 16.5968 16.0016 16.5968 15.7362V13.5804H17.7216V16.2177ZM16.6642 12.1373C16.8297 11.2605 17.2916 10.4743 17.9528 9.86584C17.9711 9.849 17.99 9.83257 18.0088 9.81603C18.0327 9.79474 18.0565 9.77346 18.0809 9.75267C18.1124 9.72583 18.1445 9.69959 18.1768 9.67365C18.1878 9.66474 18.1987 9.65583 18.2099 9.64702C18.2505 9.61504 18.2915 9.58345 18.3332 9.55276C18.3341 9.55197 18.3352 9.55127 18.3362 9.55048C18.9742 9.08087 19.7445 8.76254 20.5723 8.64204C20.581 8.64076 20.5898 8.63947 20.5985 8.63828C20.6454 8.63175 20.6924 8.626 20.7396 8.62066C20.7622 8.61818 20.7847 8.6159 20.8073 8.61363C20.8456 8.60986 20.884 8.6063 20.9225 8.60343C20.9579 8.60076 20.9936 8.59878 21.0293 8.5968C21.0578 8.59521 21.0864 8.59333 21.115 8.59224C21.1812 8.58976 21.2477 8.58818 21.3145 8.58818H34.6857C34.7526 8.58818 34.8191 8.58976 34.8852 8.59224C34.9139 8.59333 34.9424 8.59521 34.971 8.5968C35.0066 8.59878 35.0423 8.60076 35.0777 8.60343C35.1162 8.6064 35.1546 8.60986 35.1929 8.61363C35.2156 8.6158 35.2381 8.61808 35.2606 8.62066C35.3078 8.6259 35.3549 8.63165 35.4017 8.63828C35.4105 8.63947 35.4192 8.64086 35.428 8.64204C36.2557 8.76244 37.026 9.08087 37.664 9.55048C37.665 9.55127 37.6661 9.55197 37.6671 9.55276C37.7088 9.58345 37.7498 9.61504 37.7904 9.64702C37.8015 9.65583 37.8125 9.66474 37.8235 9.67365C37.8558 9.69959 37.8878 9.72593 37.9193 9.75267C37.9437 9.77346 37.9677 9.79474 37.9915 9.81603C38.0102 9.83257 38.0291 9.849 38.0475 9.86584C38.7086 10.4743 39.1705 11.2605 39.336 12.1373H16.6642ZM19.3533 17.9948C19.352 17.9846 19.3508 17.9745 19.3496 17.9643C19.3397 17.8836 19.3322 17.8032 19.3267 17.7231C19.3261 17.7129 19.3251 17.7026 19.3244 17.6924C19.319 17.6034 19.3158 17.5147 19.3158 17.4268V13.5804H36.6847V17.4081C36.6847 17.4959 36.6816 17.5844 36.676 17.6734C36.6754 17.6847 36.6743 17.6963 36.6734 17.7077C36.6679 17.7858 36.6606 17.8643 36.6511 17.9432C36.6496 17.9559 36.648 17.9686 36.6464 17.9814C36.2858 20.7826 33.396 23.9467 30.4548 24.6088L30.3508 24.6321C28.2118 25.1137 27.6704 25.1125 25.5232 24.6225C22.5914 23.9534 19.7106 20.7887 19.3533 17.9948ZM23.2629 28.1654C23.8008 27.9843 24.1568 27.5245 24.157 26.9993L24.1571 25.7282C24.4788 25.8471 24.8048 25.9469 25.1335 26.022C26.3465 26.2988 27.1479 26.4368 27.951 26.4368C28.7448 26.4368 29.5402 26.3018 30.7355 26.0328L30.8395 26.0094C31.1774 25.9334 31.5123 25.8315 31.843 25.7093L31.8431 26.9994C31.8432 27.5246 32.1993 27.9845 32.7371 28.1655L34.6164 29.0195C34.6057 29.0273 34.595 29.035 34.5842 29.0428C34.4789 29.1195 34.3726 29.1946 34.2645 29.2672C34.2619 29.269 34.2593 29.2707 34.2567 29.2724C34.1498 29.344 34.0412 29.4132 33.9317 29.481C33.9143 29.4918 33.897 29.5027 33.8796 29.5133C33.773 29.5785 33.6649 29.6415 33.5559 29.7029C33.5343 29.715 33.5126 29.7271 33.4909 29.7391C33.3812 29.7999 33.2704 29.859 33.1584 29.9159C33.1413 29.9246 33.124 29.9331 33.1068 29.9417C32.9944 29.9981 32.8809 30.0529 32.7664 30.1054C32.759 30.1088 32.7517 30.1125 32.7442 30.1158C32.6266 30.1694 32.5078 30.2204 32.3881 30.2699C32.3667 30.2787 32.3453 30.2877 32.3239 30.2964C32.208 30.3436 32.0909 30.3886 31.9731 30.4318C31.9498 30.4403 31.9264 30.4487 31.9031 30.457C31.7829 30.5002 31.6621 30.5418 31.5401 30.5808C31.5252 30.5856 31.5102 30.5899 31.4955 30.5947C31.376 30.6324 31.2558 30.6682 31.1348 30.702C31.121 30.7059 31.1073 30.7099 31.0935 30.7138C30.969 30.748 30.8434 30.7798 30.7173 30.8098C30.6933 30.8156 30.6695 30.8213 30.6454 30.8268C30.5214 30.8556 30.3967 30.8823 30.2712 30.9069C30.2481 30.9115 30.2248 30.9158 30.2015 30.9202C30.0717 30.9449 29.9416 30.9679 29.8106 30.9882C29.8013 30.9897 29.7919 30.9908 29.7826 30.9923C29.6544 31.0118 29.5254 31.0289 29.396 31.0443C29.3777 31.0465 29.3595 31.0489 29.3411 31.051C29.211 31.0658 29.0803 31.078 28.949 31.0884C28.924 31.0904 28.899 31.0924 28.874 31.0942C28.7433 31.1038 28.6121 31.1114 28.4806 31.1167C28.4591 31.1175 28.4376 31.118 28.4161 31.1187C28.278 31.1235 28.1394 31.1267 28.0003 31.1267C27.8612 31.1267 27.7227 31.1236 27.5844 31.1187C27.5631 31.118 27.5418 31.1174 27.5206 31.1167C27.3888 31.1114 27.2576 31.1038 27.1268 31.0942C27.1021 31.0924 27.0774 31.0904 27.0526 31.0884C26.9209 31.0779 26.7896 31.0657 26.659 31.0508C26.6421 31.0489 26.6252 31.0467 26.6083 31.0447C26.4766 31.0291 26.3453 31.0117 26.2148 30.9918C26.2075 30.9907 26.2001 30.9897 26.1928 30.9886C26.0595 30.968 25.9272 30.9447 25.7954 30.9195C25.775 30.9157 25.7546 30.9119 25.7343 30.9078C25.6056 30.8826 25.4778 30.8552 25.3507 30.8257C25.3313 30.8212 25.3121 30.8166 25.2927 30.8119C25.1617 30.7807 25.0312 30.7477 24.9018 30.7121C24.8962 30.7106 24.8908 30.7089 24.8852 30.7073C24.7515 30.6702 24.6187 30.6308 24.4869 30.5888C24.4815 30.5871 24.476 30.5855 24.4705 30.5838C24.34 30.5421 24.2107 30.4977 24.0823 30.4514C24.0691 30.4466 24.056 30.442 24.0429 30.4372C23.9152 30.3906 23.7885 30.3418 23.663 30.2907C23.6544 30.2872 23.6458 30.2836 23.6372 30.28C23.3738 30.1718 23.1152 30.0539 22.8622 29.9258C22.8615 29.9254 22.8607 29.9251 22.8601 29.9248C22.7343 29.8612 22.6099 29.7949 22.487 29.7264C22.4809 29.723 22.4748 29.7196 22.4686 29.7161C22.3457 29.6473 22.2241 29.5763 22.104 29.5028C22.1034 29.5024 22.1028 29.5021 22.1022 29.5017C21.8593 29.3527 21.6226 29.1938 21.3926 29.0256C21.3898 29.0235 21.387 29.0216 21.3842 29.0195L23.2629 28.1654ZM53.189 46.63C53.0154 46.7974 52.7802 46.8897 52.5269 46.8897H45.9433V38.3441C45.9433 37.9455 45.5864 37.6225 45.1462 37.6225C44.7059 37.6225 44.349 37.9455 44.349 38.3441V46.8897H41.715V34.9001C41.715 34.2814 41.1589 33.778 40.4754 33.778H15.5248V33.7781C14.8414 33.7781 14.2853 34.2815 14.2853 34.9002V39.721C14.2853 40.1195 14.6422 40.4426 15.0824 40.4426C15.5227 40.4426 15.8795 40.1195 15.8795 39.721V35.2212H24.0222V41.4861C24.0222 41.7418 24.1716 41.9783 24.415 42.1079C24.6583 42.2375 24.9593 42.241 25.2062 42.1169L27.9412 40.7421L30.8066 42.123C30.9239 42.1795 31.0526 42.2075 31.1812 42.2075C31.3234 42.2075 31.4656 42.1731 31.5916 42.1045C31.8315 41.974 31.9784 41.7393 31.9784 41.4859V35.221H40.121V49.333H15.8794V44.8024C15.8794 44.4039 15.5225 44.0808 15.0823 44.0808C14.6421 44.0808 14.2852 44.4039 14.2852 44.8024V46.8899H11.6511V38.3443C11.6511 37.9457 11.2942 37.6227 10.854 37.6227C10.4137 37.6227 10.0568 37.9457 10.0568 38.3443V46.8899H3.47355C3.22024 46.8899 2.98508 46.7976 2.8115 46.6302C2.63716 46.462 2.5501 46.2425 2.56672 46.0047L3.04874 37.8633C3.22801 35.3112 5.06223 33.1124 7.72158 32.2615L18.7368 28.7374L19.4251 29.3615C19.4252 29.3616 19.4253 29.3618 19.4255 29.3619C21.7071 31.4303 24.7523 32.5696 28.0003 32.5696C28.3331 32.5696 28.6638 32.5569 28.9918 32.5332C31.8643 32.3256 34.5275 31.2183 36.5751 29.3619L36.5791 29.3582C36.5792 29.3581 36.5794 29.358 36.5795 29.3579V29.3578L37.2638 28.7373L48.279 32.2614C50.9383 33.1123 52.7726 35.3111 52.9513 37.8559L53.4342 46.0118C53.4504 46.2423 53.3633 46.4619 53.189 46.63ZM30.3841 35.2212V40.2846L28.3077 39.284C28.1906 39.2275 28.0619 39.1994 27.9331 39.1994C27.7998 39.1994 27.6665 39.2297 27.5463 39.2901L25.6163 40.2601V35.2212H30.3841V35.2212Z" fill="#111111"/>
<path d="M24.589 1.52514H31.4116C35.6314 1.52514 39.0645 4.63293 39.0645 8.45293V8.74789C39.0521 8.7371 39.039 8.7271 39.0265 8.7164C38.97 8.66779 38.9125 8.61996 38.854 8.57333L38.8274 8.55244C37.8644 7.79252 36.6461 7.29161 35.3051 7.1729C35.2965 7.17211 35.2876 7.17181 35.279 7.17112C35.1866 7.16329 35.0937 7.15656 35.0002 7.1523C34.896 7.14755 34.7913 7.14508 34.6862 7.14508H21.3146C21.2095 7.14508 21.1048 7.14755 21.0006 7.1523C20.9071 7.15646 20.8142 7.1632 20.7218 7.17112C20.7132 7.17191 20.7043 7.17211 20.6957 7.1729C19.3546 7.29161 18.1364 7.79252 17.1733 8.55244C17.1645 8.55937 17.1555 8.5663 17.1468 8.57333C17.0883 8.62006 17.0308 8.66779 16.9743 8.7164C16.9618 8.7271 16.9487 8.7371 16.9363 8.74789V8.45293C16.9363 4.63293 20.3692 1.52514 24.589 1.52514Z" fill="#EC1818"/>
<path d="M16.6642 12.1373C16.8297 11.2605 17.2916 10.4743 17.9528 9.86584C17.9711 9.849 17.99 9.83257 18.0088 9.81603C18.0327 9.79474 18.0565 9.77346 18.0809 9.75267C18.1124 9.72583 18.1445 9.69959 18.1768 9.67365C18.1878 9.66474 18.1987 9.65583 18.2099 9.64702C18.2505 9.61504 18.2915 9.58345 18.3332 9.55276L18.3362 9.55048C18.9742 9.08087 19.7445 8.76254 20.5723 8.64204L20.5985 8.63828C20.6454 8.63175 20.6924 8.626 20.7396 8.62066C20.7622 8.61818 20.7847 8.6159 20.8073 8.61363C20.8456 8.60986 20.884 8.6063 20.9225 8.60343C20.9579 8.60076 20.9936 8.59878 21.0293 8.5968C21.0578 8.59521 21.0864 8.59333 21.115 8.59224C21.1812 8.58976 21.2477 8.58818 21.3145 8.58818H34.6857C34.7526 8.58818 34.8191 8.58976 34.8852 8.59224C34.9139 8.59333 34.9424 8.59521 34.971 8.5968C35.0066 8.59878 35.0423 8.60076 35.0777 8.60343C35.1162 8.6064 35.1546 8.60986 35.1929 8.61363C35.2156 8.6158 35.2381 8.61808 35.2606 8.62066C35.3078 8.6259 35.3549 8.63165 35.4017 8.63828L35.428 8.64204C36.2557 8.76244 37.026 9.08087 37.664 9.55048L37.6671 9.55276C37.7088 9.58345 37.7498 9.61504 37.7904 9.64702C37.7988 9.65368 37.8071 9.66039 37.8154 9.66712L37.8235 9.67365C37.8558 9.69959 37.8878 9.72593 37.9193 9.75267C37.9437 9.77346 37.9677 9.79474 37.9915 9.81603C38.0102 9.83257 38.0291 9.849 38.0475 9.86584C38.7086 10.4743 39.1705 11.2605 39.336 12.1373H16.6642Z" fill="#EC1818"/>
<path d="M17.7216 16.2177H17.1287C16.8354 16.2177 16.5968 16.0016 16.5968 15.7362V13.5804H17.7216V16.2177Z" fill="#EC1818"/>
<path d="M39.4035 15.7362C39.4035 16.0016 39.1649 16.2177 38.8716 16.2177H38.2787V13.5804H39.4035V15.7362Z" fill="#EC1818"/>
<path fill-rule="evenodd" clip-rule="evenodd" d="M33.8989 29.5014C33.9031 29.4988 33.9073 29.4962 33.9115 29.4936C33.913 29.4926 33.9145 29.4917 33.9161 29.4907" fill="#EC1818"/>
<path d="M53.189 46.63C53.0154 46.7974 52.7802 46.8897 52.5269 46.8897H45.9433V38.3441C45.9433 37.9455 45.5864 37.6225 45.1462 37.6225C44.7059 37.6225 44.349 37.9455 44.349 38.3441V46.8897H41.715V34.9001C41.715 34.2814 41.1589 33.778 40.4754 33.778H15.5248C14.8414 33.778 14.2853 34.2815 14.2853 34.9002V39.721C14.2853 40.1195 14.6422 40.4426 15.0824 40.4426C15.5227 40.4426 15.8795 40.1195 15.8795 39.721V35.2212H24.0222V41.4861C24.0222 41.7418 24.1716 41.9783 24.415 42.1079C24.6583 42.2375 24.9593 42.241 25.2062 42.1169L27.9412 40.7421L30.8066 42.123C30.9239 42.1795 31.0526 42.2075 31.1812 42.2075C31.3234 42.2075 31.4656 42.1731 31.5916 42.1045C31.8315 41.974 31.9784 41.7393 31.9784 41.4859V35.221H40.121V49.333H15.8794V44.8024C15.8794 44.4039 15.5225 44.0808 15.0823 44.0808C14.6421 44.0808 14.2852 44.4039 14.2852 44.8024V46.8899H11.6511V38.3443C11.6511 37.9457 11.2942 37.6227 10.854 37.6227C10.4137 37.6227 10.0568 37.9457 10.0568 38.3443V46.8899H3.47355C3.22024 46.8899 2.98508 46.7976 2.8115 46.6302C2.63716 46.462 2.5501 46.2425 2.56672 46.0047L3.04874 37.8633C3.22801 35.3112 5.06223 33.1124 7.72158 32.2615L18.7368 28.7374L19.4251 29.3615C21.7066 31.4299 24.7523 32.5696 28.0003 32.5696C28.3331 32.5696 28.6638 32.5569 28.9918 32.5332C31.8643 32.3256 34.5275 31.2183 36.5751 29.3619L36.5791 29.3582L37.2638 28.7373L48.279 32.2614C50.9383 33.1123 52.7726 35.3111 52.9513 37.8559L53.4342 46.0118C53.4504 46.2423 53.3633 46.4619 53.189 46.63Z" fill="#EC1818"/>
</g>
<defs>
<clipPath id="clip0_4389_10766">
<rect width="56" height="50.6942" fill="white" transform="translate(0 0.0820312)"/>
</clipPath>
</defs>
</svg>
