<svg width="56" height="57" viewBox="0 0 56 57" fill="none" xmlns="http://www.w3.org/2000/svg">
<g clip-path="url(#clip0_4389_10722)">
<path d="M35.5 36.5859V26.5859L2.5 25.5859L3 44.5859H23.5L26.5 43.0859L35.5 36.5859Z" fill="#EC1818"/>
<path d="M13.748 13.8672C13.1443 13.8672 12.6543 14.3572 12.6543 14.9609C12.6543 15.5647 13.1443 16.0547 13.748 16.0547C14.3518 16.0547 14.8418 15.5647 14.8418 14.9609C14.8418 14.3572 14.3518 13.8672 13.748 13.8672Z" fill="#111111"/>
<path d="M23.5912 34.3201H20.3102V31.0391C20.3102 30.4351 19.8204 29.9453 19.2165 29.9453C18.6125 29.9453 18.1228 30.4351 18.1228 31.0391V34.3201H14.8418C14.2378 34.3201 13.748 34.8099 13.748 35.4137C13.748 36.0176 14.2378 36.5075 14.8418 36.5075H18.1228V39.7885C18.1228 40.3925 18.6126 40.8823 19.2165 40.8823C19.8203 40.8823 20.3102 40.3925 20.3102 39.7885V36.5075H23.5912C24.1952 36.5075 24.685 36.0177 24.685 35.4137C24.685 34.8098 24.1953 34.3201 23.5912 34.3201Z" fill="#111111"/>
<path d="M43 49.5859L35.5 36.0859L44.5 32.0859L48 32.5859L52 36.0859L53 38.5859V42.5859L50.5 45.0859L48 47.0859L43 49.5859Z" fill="#EC1818"/>
<path d="M53.1101 35.3029C50.6923 31.1154 45.3465 29.6823 41.1582 32.1005L36.7156 34.6654V25.1677C36.7156 23.9936 36.3274 22.8284 35.622 21.8867L30.1536 14.5956V11.4909C31.4265 11.0394 32.341 9.82381 32.341 8.39789V3.36697C32.3408 1.5578 30.8689 0.0859375 29.0597 0.0859375H9.37321C7.56403 0.0859375 6.09207 1.5578 6.09207 3.36697V8.398C6.09207 9.8237 7.00655 11.0395 8.27946 11.491V14.5957L2.8106 21.8872C2.10557 22.8285 1.71729 23.9936 1.71729 25.1677V46.3493C1.71729 49.3646 4.17046 51.8177 7.18571 51.8177H24.7625C27.2148 55.9283 32.5026 57.304 36.6476 54.9107L49.9078 47.2548C54.0591 44.8575 55.54 39.5133 53.1101 35.3029ZM8.27946 3.36697C8.27946 2.76387 8.77011 2.27322 9.3731 2.27322H29.0596C29.6627 2.27322 30.1534 2.76387 30.1534 3.36697V8.398C30.1534 9.00109 29.6627 9.49164 29.0596 9.49164H9.37321C8.77011 9.49164 8.27957 9.00098 8.27957 8.398V3.36697H8.27946ZM4.56104 23.199L10.2481 15.6164C10.3901 15.4272 10.4668 15.1969 10.4668 14.9602V11.6791H27.966V13.8665H18.1228C17.5188 13.8665 17.029 14.3563 17.029 14.9603C17.029 15.5643 17.5188 16.054 18.1228 16.054H28.5128L33.8715 23.1986C34.2217 23.6662 34.4392 24.2257 34.505 24.8036H3.92797C3.9936 24.2255 4.21114 23.6661 4.56104 23.199ZM7.18582 49.6303C5.37664 49.6303 3.90479 48.1584 3.90479 46.3493V45.2447H23.7755C23.4287 46.6627 23.431 48.1774 23.8281 49.6304H7.18582V49.6303ZM24.6333 43.0681H3.90468V26.9908H34.5281V35.9281L27.8979 39.7565C26.5156 40.555 25.3982 41.6918 24.6333 43.0681ZM35.5541 53.0163C32.4153 54.8288 28.4046 53.7569 26.5909 50.616C24.7686 47.4448 25.873 43.4521 28.9919 41.6506L34.9285 38.223L41.4906 49.5887L35.5541 53.0163ZM48.8141 45.3605L43.385 48.4951L36.8227 37.1292L42.2519 33.9949C45.3927 32.1817 49.4021 33.2554 51.2157 36.3965C53.0373 39.5532 51.9296 43.5614 48.8141 45.3605Z" fill="#111111"/>
</g>
<defs>
<clipPath id="clip0_4389_10722">
<rect width="56" height="56" fill="white" transform="translate(0 0.0859375)"/>
</clipPath>
</defs>
</svg>
