<svg width="48" height="48" viewBox="0 0 48 48" fill="none" xmlns="http://www.w3.org/2000/svg">
<path d="M47.7189 7.05722L40.9422 0.280592C40.568 -0.0935308 39.9614 -0.0935308 39.5871 0.280592L34.2682 5.59954C24.1139 -0.0791549 11.2786 3.54911 5.5999 13.7035C2.02698 20.0925 2.02686 27.8783 5.59954 34.2672L0.280592 39.5862C-0.0935308 39.9604 -0.0935308 40.567 0.280592 40.9413L7.05722 47.7179C7.43146 48.092 8.03811 48.092 8.41235 47.7179L13.7284 42.3999C23.8863 48.0766 36.7228 44.4439 42.3996 34.286C45.9688 27.8993 45.9692 20.1185 42.4009 13.7313L47.7198 8.41235C48.0937 8.03787 48.0933 7.43122 47.7189 7.05722ZM7.73574 45.6852L2.31521 40.2637L11.1245 31.4534C11.3042 31.2737 11.4053 31.0301 11.4053 30.7759V27.0085C11.4055 26.7422 11.4257 26.4764 11.4657 26.2131C11.9021 23.6028 14.372 21.8406 16.9822 22.2772C17.9668 22.4418 18.8755 22.9098 19.5812 23.6159C20.3028 24.33 20.7735 25.2588 20.9229 26.2629C20.9843 26.6812 21.3126 27.0098 21.7308 27.0718C22.7352 27.2206 23.6641 27.6914 24.3778 28.4135C25.2782 29.3141 25.7842 30.5354 25.7847 31.809C25.7848 32.0982 25.7591 32.3869 25.708 32.6715C25.6738 32.8273 25.6315 32.9811 25.5815 33.1325C25.548 33.2485 25.5278 33.3702 25.4857 33.4823C24.889 35.0849 23.4823 36.2472 21.796 36.5309C21.5297 36.5732 21.2606 36.5946 20.9909 36.5951H17.2236C16.9694 36.5951 16.7257 36.6962 16.546 36.8759L7.73574 45.6852ZM37.5535 37.5535C31.6428 43.4961 22.5495 44.8931 15.1276 40.9988L17.6194 38.5118H20.9909C21.3606 38.5112 21.7297 38.4824 22.095 38.4256H22.1065C22.7026 38.3254 23.2828 38.1462 23.8315 37.8927C26.1986 36.7963 27.7117 34.4233 27.7072 31.8147C27.7072 31.7975 27.7072 31.7812 27.7072 31.764C27.6857 28.7287 25.6291 26.086 22.692 25.3199C21.9197 22.3634 19.249 20.3013 16.1933 20.3019C12.9126 20.2992 10.1131 22.6739 9.5806 25.9112C9.52417 26.2762 9.49566 26.6449 9.4953 27.0143V30.3849L7.00355 32.8766C2.10317 23.488 5.74173 11.9044 15.1304 7.00403C20.6869 4.10376 27.3102 4.10221 32.8681 6.99971L30.3764 9.48668H27.0096C26.6361 9.4874 26.2632 9.51687 25.8941 9.57485C25.298 9.675 24.7178 9.85421 24.169 10.1077C21.802 11.2041 20.2888 13.5771 20.2934 16.1857C20.2934 16.2029 20.2934 16.2192 20.2934 16.2365C20.3148 19.2717 22.3715 21.9144 25.3085 22.6805C26.0739 25.6148 28.7125 27.6709 31.7449 27.6957H31.8024C35.0831 27.6983 37.8827 25.3236 38.4151 22.0863C38.4716 21.7213 38.5001 21.3526 38.5004 20.9833V17.6194L40.9922 15.1276C44.8884 22.548 43.4941 31.6414 37.5535 37.5535ZM36.8759 16.5451C36.6962 16.7248 36.5951 16.9684 36.5951 17.2226V20.99C36.595 21.2563 36.5747 21.5221 36.5347 21.7854C36.4008 22.5637 36.0765 23.2969 35.5907 23.9197C35.5543 23.9676 35.5255 24.0232 35.4863 24.0692C35.3796 24.1885 35.267 24.3025 35.1489 24.4104C35.0665 24.4909 34.9937 24.581 34.9064 24.6548C34.8192 24.7286 34.7148 24.7861 34.6256 24.8541C34.4963 24.95 34.3726 25.0458 34.2337 25.1311C34.1512 25.18 34.0592 25.2116 33.9739 25.2547C33.8156 25.3412 33.6524 25.4187 33.4852 25.4866C33.4143 25.5125 33.3376 25.524 33.2657 25.547C33.0719 25.6133 32.8741 25.6674 32.6734 25.709C32.5776 25.7262 32.4712 25.7243 32.3706 25.7358C32.1865 25.7636 32.0009 25.7803 31.8147 25.7857C30.5417 25.7868 29.3202 25.2821 28.4192 24.3826C27.6976 23.6685 27.2269 22.7397 27.0775 21.7356C27.0161 21.3173 26.6878 20.9887 26.2696 20.9267C25.2653 20.7779 24.3364 20.3071 23.6226 19.585C21.7486 17.7163 21.7444 14.6822 23.6131 12.8084C24.3166 12.103 25.2224 11.6344 26.2045 11.4676C26.4717 11.4253 26.7419 11.4039 27.0124 11.4034H30.7797C31.0339 11.4034 31.2776 11.3023 31.4573 11.1226L40.2676 2.31329L45.6881 7.73478L36.8759 16.5451Z" fill="white"/>
</svg>
