<svg width="46" height="48" viewBox="0 0 46 48" fill="none" xmlns="http://www.w3.org/2000/svg">
<path d="M44.5231 30.186C42.4508 26.5967 37.8687 25.3683 34.2787 27.4411L30.4708 29.6395V21.4987C30.4708 20.4923 30.138 19.4935 29.5334 18.6863L24.8461 12.4369V9.77569C25.9372 9.38869 26.721 8.34675 26.721 7.12453V2.81231C26.7209 1.26159 25.4593 0 23.9085 0H7.03439C5.48367 0 4.22198 1.26159 4.22198 2.81231V7.12463C4.22198 8.34666 5.00582 9.38878 6.09689 9.77578V12.437L1.40929 18.6868C0.80498 19.4936 0.472168 20.4923 0.472168 21.4987V39.6543C0.472168 42.2389 2.57489 44.3415 5.15939 44.3415H20.2252C22.3272 47.8649 26.8596 49.0441 30.4124 46.9927L41.7783 40.4304C45.3366 38.3756 46.6059 33.7949 44.5231 30.186ZM6.09689 2.81231C6.09689 2.29537 6.51745 1.87481 7.03429 1.87481H23.9084C24.4254 1.87481 24.8459 2.29537 24.8459 2.81231V7.12463C24.8459 7.64156 24.4254 8.06203 23.9084 8.06203H7.03439C6.51745 8.06203 6.09698 7.64147 6.09698 7.12463L6.09689 2.81231ZM2.90967 19.8112L7.78429 13.3118C7.90598 13.1497 7.97179 12.9522 7.97179 12.7493V9.93703H22.971V11.8119H14.534C14.0163 11.8119 13.5965 12.2318 13.5965 12.7494C13.5965 13.2671 14.0163 13.6869 14.534 13.6869H23.4398L28.0329 19.8109C28.3331 20.2117 28.5195 20.6912 28.5759 21.1866H2.36704C2.42329 20.6911 2.60976 20.2116 2.90967 19.8112ZM5.15948 42.4666C3.60876 42.4666 2.34717 41.205 2.34717 39.6543V38.7075H19.3792C19.0819 39.923 19.0839 41.2212 19.4243 42.4667H5.15948V42.4666ZM20.1145 36.8419H2.34707V23.0613H28.5958V30.7219L22.9127 34.0033C21.7278 34.6878 20.7701 35.6621 20.1145 36.8419ZM29.4751 45.3689C26.7848 46.9224 23.347 46.0037 21.7924 43.3115C20.2304 40.5933 21.177 37.171 23.8504 35.6269L28.9389 32.6889L34.5636 42.431L29.4751 45.3689ZM40.8408 38.8068L36.1874 41.4936L30.5625 31.7513L35.2161 29.0648C37.9082 27.5107 41.3448 28.431 42.8994 31.1233C44.4608 33.8291 43.5113 37.2647 40.8408 38.8068Z" fill="white"/>
</svg>
