<svg width="48" height="48" viewBox="0 0 48 48" fill="none" xmlns="http://www.w3.org/2000/svg">
<g clip-path="url(#clip0_4522_933)">
<path d="M47.9407 24.5649C47.856 24.0541 47.3731 23.7088 46.8626 23.7933L45.1316 24.0801L44.9716 23.4936C44.8452 23.0299 44.3884 22.7372 43.9143 22.8153L41.6457 23.1901C41.1348 23.2744 40.7891 23.757 40.8735 24.2678C40.9579 24.7786 41.44 25.1241 41.9513 25.0399L43.3852 24.8031L43.5452 25.3901C43.6579 25.8033 44.033 26.081 44.449 26.081C44.4998 26.081 44.5514 26.0769 44.603 26.0683L47.1691 25.6431C47.6798 25.5585 48.0253 25.0757 47.9407 24.5649Z" fill="white"/>
<path d="M45.872 32.1275L44.1449 31.4767L44.2626 30.8074C44.3407 30.3633 44.0917 29.9265 43.6697 29.7676L41.4967 28.9491C41.012 28.7665 40.4714 29.0115 40.2889 29.4961C40.1065 29.9806 40.3513 30.5213 40.8358 30.7039L42.2812 31.2484L42.1635 31.9176C42.0854 32.3616 42.3344 32.7984 42.7563 32.9573L45.2109 33.8821C45.3197 33.9231 45.4314 33.9426 45.5413 33.9426C45.9203 33.9426 46.2772 33.711 46.4187 33.3353C46.6014 32.8507 46.3566 32.31 45.872 32.1275Z" fill="white"/>
<path d="M41.1659 18.6975C41.411 18.6975 41.6559 18.6019 41.8398 18.4118L42.8904 17.3256L43.2633 17.6521C43.6393 17.9813 44.2074 17.9576 44.5549 17.5984L46.4409 15.6479C46.8008 15.2757 46.7908 14.6822 46.4186 14.3223C46.0464 13.9622 45.453 13.9722 45.093 14.3445L43.8272 15.6535L43.4545 15.3273C43.0785 14.9981 42.5104 15.0216 42.1631 15.3807L40.4922 17.108C40.1322 17.4802 40.142 18.0738 40.5142 18.4338C40.6962 18.6098 40.9311 18.6975 41.1659 18.6975Z" fill="white"/>
<path d="M3.54866 26.0811C3.96463 26.0811 4.33972 25.8034 4.45241 25.3902L4.61244 24.803L6.04916 25.04C6.56047 25.1251 7.04254 24.7785 7.12682 24.2677C7.2111 23.7568 6.86525 23.2743 6.35441 23.1901L4.08313 22.8154C3.60894 22.7369 3.15247 23.0301 3.02601 23.4937L2.86616 24.0801L1.13788 23.7934C0.627131 23.7087 0.144318 24.054 0.0596618 24.5649C-0.0250882 25.0756 0.320381 25.5584 0.831131 25.6431L3.39463 26.0683C3.44619 26.077 3.49776 26.0811 3.54866 26.0811Z" fill="white"/>
<path d="M6.50043 28.9492L4.33012 29.7676C3.90899 29.9264 3.66018 30.3621 3.73734 30.8055L3.85406 31.4763L2.12793 32.1273C1.64353 32.31 1.39884 32.8509 1.58156 33.3354C1.72321 33.7109 2.07993 33.9423 2.45887 33.9423C2.56884 33.9423 2.68068 33.9228 2.78953 33.8818L5.24146 32.957C5.66259 32.7982 5.9114 32.3626 5.83424 31.9191L5.71753 31.2484L7.16212 30.7036C7.64653 30.5209 7.89121 29.98 7.70849 29.4956C7.52568 29.0111 6.98493 28.7666 6.50043 28.9492Z" fill="white"/>
<path d="M5.83444 15.3808C5.48672 15.0214 4.91794 14.9981 4.54209 15.3281L4.17169 15.6532L2.904 14.3441C2.54381 13.9719 1.95028 13.9624 1.57828 14.3227C1.20637 14.6829 1.19681 15.2763 1.5569 15.6483L3.44559 17.5989C3.79331 17.958 4.36181 17.9812 4.73756 17.6513L5.10759 17.3265L6.1575 18.4118C6.34144 18.6018 6.58622 18.6975 6.83137 18.6975C7.06603 18.6975 7.30106 18.6098 7.48312 18.4337C7.85531 18.0737 7.86515 17.4802 7.50515 17.108L5.83444 15.3808Z" fill="white"/>
<path d="M31.5073 16.0234C30.9895 16.0234 30.5698 16.4433 30.5698 16.9609C30.5698 17.4786 30.9895 17.8984 31.5073 17.8984H31.51C32.0277 17.8984 32.4461 17.4786 32.4461 16.9609C32.4461 16.4433 32.0251 16.0234 31.5073 16.0234Z" fill="white"/>
<path d="M37.1333 16.9618C37.1333 13.8572 34.6094 11.3313 31.5071 11.3313H29.0109C29.2146 10.9041 29.3287 10.4263 29.3287 9.92231V3.28397C29.3286 1.47319 27.8558 0 26.0454 0C24.235 0 22.7621 1.47319 22.7621 3.28397V6.64097H16.4926C13.3889 6.64097 10.8638 9.16566 10.8638 12.2688C10.8638 14.2253 11.8667 15.952 13.3853 16.9616C11.8668 17.9707 10.8638 19.6966 10.8638 21.6521C10.8638 23.6089 11.8668 25.3357 13.3856 26.3452C11.8668 27.3547 10.8638 29.0815 10.8638 31.0383C10.8638 34.1415 13.3888 36.6661 16.4926 36.6661H18.3886C18.1849 37.0933 18.0708 37.5711 18.0708 38.0751V44.716C18.0708 46.5268 19.5436 48 21.354 48C23.1643 48 24.6371 46.5268 24.6371 44.716V41.359H31.507C34.6093 41.359 37.1332 38.8332 37.1332 35.7285C37.1332 33.773 36.1307 32.0469 34.6129 31.038C36.1306 30.0284 37.1332 28.3016 37.1332 26.3452C37.1332 24.3886 36.1307 22.6618 34.6129 21.6523C36.1307 20.6433 37.1333 18.9173 37.1333 16.9618ZM31.5071 20.7146H16.4927C15.9749 20.7146 15.5552 21.1344 15.5552 21.6521C15.5552 22.1698 15.9749 22.5896 16.4927 22.5896H31.507C33.5755 22.5896 35.2582 24.2744 35.2582 26.3452C35.2582 28.416 33.5755 30.1008 31.507 30.1008H16.4927C15.9749 30.1008 15.5552 30.5206 15.5552 31.0383C15.5552 31.556 15.9749 31.9758 16.4927 31.9758H31.507C33.5755 31.9758 35.2582 33.6593 35.2582 35.7286C35.2582 37.7994 33.5755 39.4841 31.507 39.4841H23.6996C23.1819 39.4841 22.7621 39.9039 22.7621 40.4216V44.7161C22.7621 45.493 22.1305 46.1251 21.354 46.1251C20.5776 46.1251 19.9458 45.493 19.9458 44.7161V38.0752C19.9458 37.2983 20.5775 36.6662 21.354 36.6662H31.507C32.0248 36.6662 32.4445 36.2464 32.4445 35.7287C32.4445 35.211 32.0248 34.7912 31.507 34.7912H16.4927C14.4228 34.7912 12.7389 33.1077 12.7389 31.0384C12.7389 28.9675 14.4228 27.2828 16.4927 27.2828H31.507C32.0248 27.2828 32.4445 26.863 32.4445 26.3453C32.4445 25.8277 32.0248 25.4078 31.507 25.4078H16.4927C14.4228 25.4078 12.7389 23.7231 12.7389 21.6522C12.7389 19.5829 14.4228 17.8994 16.4927 17.8994H27.2966C27.8143 17.8994 28.2341 17.4796 28.2341 16.9619C28.2341 16.4442 27.8143 16.0244 27.2966 16.0244H16.4927C14.4228 16.0244 12.7389 14.3396 12.7389 12.2689C12.7389 10.1996 14.4228 8.51606 16.4927 8.51606H23.6997C24.2175 8.51606 24.6372 8.09625 24.6372 7.57856V3.28397C24.6372 2.50706 25.2689 1.875 26.0455 1.875C26.822 1.875 27.4537 2.50706 27.4537 3.28397V9.92231C27.4537 10.6992 26.822 11.3313 26.0455 11.3313H16.4927C15.9749 11.3313 15.5552 11.7511 15.5552 12.2688C15.5552 12.7865 15.9749 13.2063 16.4927 13.2063H31.507C33.5755 13.2063 35.2582 14.891 35.2582 16.9618C35.2583 19.0312 33.5756 20.7146 31.5071 20.7146Z" fill="white"/>
</g>
<defs>
<clipPath id="clip0_4522_933">
<rect width="48" height="48" fill="white"/>
</clipPath>
</defs>
</svg>
