<svg width="48" height="48" viewBox="0 0 48 48" fill="none" xmlns="http://www.w3.org/2000/svg">
<g clip-path="url(#clip0_4522_880)">
<path d="M30.9317 6.98482C30.2798 4.54479 28.7236 2.50987 26.55 1.25493C25.128 0.433967 23.5084 0 21.8665 0C18.4964 0 15.3628 1.80131 13.6887 4.70098L7.75587 14.9769C7.7553 14.9778 7.75465 14.9787 7.75408 14.9796C7.75352 14.9805 7.75315 14.9816 7.75258 14.9825L1.81954 25.2587C-0.776197 29.7547 0.769922 35.5244 5.26597 38.1201C6.68777 38.941 8.30711 39.3748 9.94886 39.3748C13.0225 39.3748 15.9075 37.8868 17.666 35.3945C17.6821 35.3716 17.6972 35.3481 17.7111 35.324L29.9958 14.1177C31.2499 11.9526 31.5822 9.41959 30.9317 6.98482ZM16.1104 34.3467C14.7005 36.3219 12.4003 37.4999 9.94886 37.4999C8.6358 37.4999 7.34065 37.1528 6.20346 36.4963C2.60273 34.4175 1.36458 29.7968 3.44338 26.1961L8.90927 16.729L10.9386 17.9006C10.9388 17.9006 10.9389 17.9008 10.939 17.9008L10.9394 17.901L21.9533 24.2602L16.1104 34.3467ZM28.3733 13.1776L22.8931 22.6379L12.6883 16.746L15.3111 12.2033C15.5699 11.7549 15.4163 11.1815 14.9679 10.9227C14.5195 10.6637 13.9462 10.8174 13.6873 11.2658L11.0646 15.8085L9.84667 15.1054L15.3124 5.63857C16.6527 3.31705 19.1641 1.87499 21.8665 1.87499C23.1797 1.87499 24.4752 2.22205 25.6125 2.87877C27.3521 3.88302 28.5978 5.51323 29.1203 7.46885C29.6413 9.41921 29.376 11.4466 28.3733 13.1776Z" fill="white"/>
<path d="M43.3363 32.1393C41.0471 31.4852 38.0282 31.125 34.8357 31.125C31.6433 31.125 28.6244 31.4852 26.3352 32.1393C23.6154 32.9164 22.2349 34.0104 22.2317 35.3911C22.2317 35.3928 22.2314 35.3943 22.2314 35.3959V43.7291C22.2314 45.1145 23.6099 46.2109 26.3285 46.9876C28.6134 47.6405 31.6346 48 34.8355 48C38.0364 48 41.0577 47.6405 43.3426 46.9876C46.0612 46.2109 47.4396 45.1145 47.4396 43.7291V35.4017C47.4398 35.3998 47.44 35.3978 47.44 35.3959C47.44 34.013 46.0592 32.9172 43.3363 32.1393ZM26.8504 33.9422C28.9768 33.3347 31.8127 33.0001 34.8358 33.0001C37.8589 33.0001 40.6949 33.3347 42.8213 33.9422C45.0817 34.588 45.5623 35.2817 45.565 35.3948C45.565 35.3952 45.5649 35.3956 45.5649 35.396V35.3975C45.561 35.5119 45.079 36.2045 42.8213 36.8496C40.6949 37.4571 37.8589 37.7917 34.8358 37.7917C31.8127 37.7917 28.9768 37.4571 26.8504 36.8496C24.5836 36.202 24.1066 35.5061 24.1066 35.396C24.1066 35.2858 24.5836 34.5898 26.8504 33.9422ZM45.565 43.7291C45.5648 43.8628 45.0778 44.5419 42.8277 45.1848C40.7056 45.7911 37.8673 46.125 34.8357 46.125C31.804 46.125 28.9659 45.7912 26.8437 45.1848C24.5937 44.542 24.1066 43.8628 24.1066 43.7291V37.7933C24.7069 38.1125 25.4497 38.3994 26.3353 38.6524C28.6245 39.3065 31.6433 39.6667 34.8358 39.6667C38.0283 39.6667 41.0472 39.3065 43.3364 38.6524C44.2219 38.3994 44.9645 38.1126 45.5649 37.7934V40.133C44.2198 40.7987 42.5418 41.3377 40.6707 41.7016C40.1624 41.8004 39.8305 42.2925 39.9293 42.8008C40.0164 43.2486 40.4087 43.5595 40.8486 43.5595C40.908 43.5595 40.9682 43.5538 41.0285 43.542C42.6984 43.2174 44.2383 42.758 45.565 42.1942V43.7291Z" fill="white"/>
<path d="M16.3766 8.48317C15.9282 8.22433 15.3549 8.37789 15.096 8.82629L15.0808 8.85264C14.822 9.30104 14.9755 9.87432 15.4239 10.1333C15.5716 10.2185 15.7328 10.259 15.8919 10.259C16.2159 10.259 16.5309 10.0909 16.7046 9.79013L16.7198 9.76379C16.9787 9.31538 16.825 8.74211 16.3766 8.48317Z" fill="white"/>
<path d="M38.973 42.9341C38.9216 42.419 38.4632 42.0432 37.9469 42.0945L37.9258 42.0966C37.4103 42.1454 37.0321 42.6029 37.0809 43.1183C37.1268 43.6036 37.5352 43.9674 38.0131 43.9674C38.0426 43.9674 38.0726 43.966 38.1026 43.9632L38.1334 43.9602C38.6486 43.9087 39.0245 43.4492 38.973 42.9341Z" fill="white"/>
</g>
<defs>
<clipPath id="clip0_4522_880">
<rect width="48" height="48" fill="white"/>
</clipPath>
</defs>
</svg>
