<svg width="48" height="48" viewBox="0 0 48 48" fill="none" xmlns="http://www.w3.org/2000/svg">
<g clip-path="url(#clip0_4522_972)">
<path d="M33.7047 3.04297C31.0669 3.04297 28.4905 3.78444 26.2516 5.18751C25.8222 5.41963 22.5671 7.30149 23.0723 10.7298C23.2568 11.982 23.9194 12.8768 24.5602 13.7423C25.4644 14.9636 26.3274 16.1311 26.092 18.4927C26.0793 18.486 26.0674 18.4781 26.0545 18.4716C25.3852 18.1302 24.623 18.0702 23.9083 18.3023C23.2541 18.5149 22.7122 18.9494 22.3637 19.5347C22.1256 19.3042 21.8534 19.1061 21.5518 18.9477C21.0264 18.6718 20.4528 18.5366 19.8755 18.5452C19.8321 18.0752 19.8566 17.7663 19.8845 17.4201C19.9196 16.9822 19.9594 16.4859 19.8537 15.7051C19.6482 14.188 18.7794 12.8627 17.4072 11.9731C15.7522 10.9 13.5278 10.5852 11.6023 11.1511C8.1005 12.1802 6.07605 15.8679 7.0894 19.3717C7.38846 20.4055 7.93793 21.3593 8.67847 22.1295C9.06716 22.5339 9.27744 23.0677 9.2556 23.594C9.19344 25.0896 9.40007 26.575 9.86976 28.0092C10.8756 31.08 13.0616 33.6191 16.025 35.1582C17.8798 36.1215 19.8797 36.6107 21.8746 36.6106C23.0668 36.6106 24.2574 36.4358 25.4137 36.0832C26.054 35.8879 26.6813 35.641 27.2782 35.349C28.9111 34.5501 30.2055 33.1865 30.9228 31.509C31.3227 30.574 31.5293 29.5745 31.5396 28.5712C31.9827 28.6527 32.4512 28.629 32.9067 28.4822C34.3679 28.0113 35.179 26.4158 34.7152 24.9258L33.996 22.6157C33.5181 21.0808 32.3069 19.9115 30.7563 19.4875C29.7663 19.2172 28.7413 19.2797 27.8191 19.6402C28.4988 15.912 27.1625 14.1055 26.0675 12.6265C25.5181 11.8845 25.0437 11.2436 24.9277 10.4563C24.5951 8.19971 27.0493 6.88608 27.1509 6.83283C27.1751 6.82036 27.1989 6.80686 27.2219 6.79233C29.1681 5.56598 31.4099 4.91779 33.7052 4.91779C40.554 4.91779 46.1258 10.6437 46.1258 17.6816C46.1258 25.4049 40.0618 31.8947 34.9749 35.9791C30.2115 39.8034 25.3851 42.2952 24 42.9771C22.6684 42.3215 18.1597 39.9954 13.5869 36.4235C13.1788 36.1049 12.5897 36.1773 12.2709 36.5853C11.9521 36.9934 12.0246 37.5825 12.4326 37.9012C18.0335 42.2762 23.382 44.7652 23.607 44.8689C23.7317 44.9265 23.8657 44.9552 23.9998 44.9552C24.1339 44.9552 24.268 44.9264 24.3926 44.8689C24.6323 44.7583 30.3291 42.1067 36.1177 37.4658C39.5391 34.7229 42.2706 31.8547 44.2364 28.9412C46.7339 25.2396 48.0003 21.4513 48.0003 17.6818C48.0004 9.6099 41.5873 3.04297 33.7047 3.04297ZM18.6407 21.8045C19.0654 21.4312 19.5241 21.0275 19.7734 20.4281C20.0842 20.3989 20.3973 20.4591 20.6802 20.6077C21.0091 20.7804 21.2628 21.0543 21.4108 21.3891L21.0198 22.1563L18.3077 22.1026C18.4201 21.9983 18.5316 21.9002 18.6407 21.8045ZM26.8798 23.0454L27.1921 22.4326C27.3167 22.2481 27.4642 22.077 27.6333 21.924C28.3487 21.2768 29.3311 21.0421 30.2615 21.2964C31.192 21.5507 31.9186 22.2524 32.2054 23.1733L32.9246 25.4832C33.0842 25.9961 32.818 26.5408 32.3311 26.6978C31.8688 26.8471 31.3685 26.616 31.1809 26.1721L30.6328 24.4118C30.4789 23.9174 29.9533 23.6413 29.459 23.7954C28.9646 23.9493 28.6886 24.4748 28.8426 24.9692L29.405 26.7757C30.2541 29.5157 29.0129 32.4132 26.4539 33.6648C25.9461 33.9132 25.412 34.1236 24.8664 34.2899C19.4615 35.9381 13.4097 32.7944 11.6513 27.4257C11.2516 26.2055 11.0759 24.9426 11.1286 23.672C11.1717 22.6374 10.7713 21.6017 10.03 20.8304C9.49175 20.2703 9.10822 19.6043 8.89034 18.8508C8.16303 16.3359 9.61663 13.6888 12.1307 12.9499C12.5985 12.8125 13.0897 12.7454 13.5814 12.7454C14.5783 12.7454 15.5773 13.0213 16.3871 13.5463C17.0283 13.962 17.8278 14.7175 17.9956 15.9566C18.0742 16.5372 18.0469 16.8768 18.0153 17.2701C17.9771 17.7471 17.9337 18.2876 18.0663 19.2024C18.1427 19.7288 18.0393 19.8367 17.4027 20.3961C17.2277 20.5499 17.0293 20.7242 16.824 20.9267C16.8238 20.927 16.8172 20.9333 16.8169 20.9336L16.8055 20.9448C16.2927 21.4458 16.1313 22.1988 16.3943 22.8632C16.6554 23.5226 17.2833 23.9578 17.994 23.9719L21.2118 24.0356C21.7888 24.0481 22.3247 23.7247 22.5853 23.2133L23.942 20.5516C24.0556 20.3286 24.2494 20.1631 24.4875 20.0858C24.7258 20.0085 24.9797 20.0284 25.2029 20.1423C25.426 20.2559 25.5915 20.4497 25.6688 20.6878C25.7462 20.926 25.7261 21.18 25.6124 21.4031L25.5646 21.4969C25.4083 21.7438 25.2758 22.0042 25.1686 22.2738L24.2558 24.0647C23.8457 24.8695 23.1095 25.487 22.236 25.7591C21.8901 25.8667 21.5329 25.9179 21.1746 25.9105L17.1201 25.8289C16.6001 25.8191 16.1744 26.2298 16.164 26.7474C16.1536 27.2651 16.5648 27.6931 17.0824 27.7035L21.137 27.7851C21.6972 27.7961 22.2546 27.717 22.7934 27.5493C23.7381 27.2551 24.5798 26.6985 25.2189 25.9633L25.8796 28.0852C26.0335 28.5795 26.5587 28.8556 27.0534 28.7016C27.5478 28.5477 27.8238 28.0221 27.6699 27.5278L26.8348 24.8458C26.6486 24.2472 26.6725 23.6145 26.8798 23.0454Z" fill="white"/>
<path d="M10.9712 34.2387L10.9443 34.2146C10.5591 33.8686 9.96628 33.9005 9.62034 34.2857C9.2744 34.671 9.30627 35.2637 9.69149 35.6097L9.7184 35.6338C9.89746 35.7946 10.1213 35.8738 10.3445 35.8738C10.6013 35.8738 10.8572 35.7688 11.0423 35.5626C11.3883 35.1772 11.3564 34.5846 10.9712 34.2387Z" fill="white"/>
<path d="M21.7779 5.20635C19.5323 3.791 16.945 3.04297 14.2956 3.04297C6.41299 3.04297 0 9.6099 0 17.6818C0 22.7794 2.29257 27.8568 6.81406 32.7732C6.99893 32.9742 7.25122 33.076 7.50434 33.076C7.73112 33.076 7.95866 32.9942 8.13875 32.8285C8.51985 32.4781 8.54469 31.885 8.19416 31.5038C4.00098 26.9446 1.87501 22.2941 1.87501 17.6818C1.87501 10.6438 7.44697 4.91798 14.2956 4.91798C16.5906 4.91798 18.8324 5.56626 20.7783 6.79261C21.2162 7.0687 21.7952 6.93745 22.0713 6.49936C22.3473 6.06136 22.2159 5.48245 21.7779 5.20635Z" fill="white"/>
<path d="M33.7047 7.5C33.1869 7.5 32.7671 7.91972 32.7671 8.4375C32.7671 8.95529 33.1868 9.37501 33.7046 9.37501H33.7097C34.2275 9.37501 34.6447 8.95529 34.6447 8.4375C34.6447 7.91972 34.2225 7.5 33.7047 7.5Z" fill="white"/>
<path d="M41.8463 11.8282C40.6868 10.1427 39.0812 8.87046 37.2028 8.14858C36.7195 7.96286 36.1772 8.20408 35.9914 8.68736C35.8056 9.17065 36.0469 9.71299 36.5301 9.89881C39.6704 11.1056 41.7803 14.2341 41.7803 17.6837C41.7803 18.2015 42.2001 18.6212 42.7179 18.6212C43.2356 18.6212 43.6554 18.2015 43.6554 17.6837C43.6554 15.5731 43.0299 13.5483 41.8463 11.8282Z" fill="white"/>
</g>
<defs>
<clipPath id="clip0_4522_972">
<rect width="48" height="48" fill="white"/>
</clipPath>
</defs>
</svg>
