<svg width="48" height="48" viewBox="0 0 48 48" fill="none" xmlns="http://www.w3.org/2000/svg">
<g clip-path="url(#clip0_4522_859)">
<path d="M28.8217 11.1701C28.8093 11.1577 28.7969 11.1453 28.7845 11.1453C25.1926 8.54428 24.4123 2.4876 24.3999 2.4009C24.338 1.85593 23.8425 1.47196 23.2976 1.53389C22.7526 1.59582 22.3686 2.09126 22.4306 2.63623C22.4677 2.90872 23.2728 9.34937 27.3477 12.5449C27.2239 12.9908 26.7532 13.8578 26.5798 14.1675C26.4436 14.4152 26.3321 14.6134 26.2578 14.7744C26.2454 14.7991 26.233 14.8239 26.233 14.8363C26.0348 15.3937 25.849 15.951 25.6633 16.496C25.0068 18.4654 24.3875 20.3108 23.2604 21.9582C21.7989 24.0266 20.102 25.8473 18.7272 26.8134C17.8106 27.4451 16.795 27.9034 15.7298 28.374C14.7513 28.8199 13.7233 29.2658 12.7572 29.8851C12.237 30.2195 11.7416 30.5911 11.2709 30.9874C10.3296 31.7554 9.4378 32.4737 8.33546 32.5852C8.14967 32.5976 7.97627 32.6224 7.80287 32.6348C6.67575 32.7339 5.4991 32.8329 4.24813 33.5637C-0.136465 36.1523 -0.0373782 42.1099 0.0121652 44.9711C0.024551 45.5161 0.458056 45.9496 1.00303 45.9496H1.01542C1.5604 45.9372 1.9939 45.4913 1.9939 44.9463V44.9339C1.9072 40.9333 2.254 37.007 5.22661 35.2606C6.08123 34.7651 6.91108 34.6908 7.9515 34.6041C8.13728 34.5917 8.32307 34.567 8.50886 34.5546C10.1933 34.3936 11.4071 33.4027 12.4971 32.5357C12.9058 32.1889 13.3393 31.8668 13.7976 31.5696C14.6522 31.0246 15.5564 30.6159 16.5225 30.1948C17.6248 29.6993 18.7767 29.1915 19.8419 28.4483C22.0961 26.863 24.1026 24.1876 24.8706 23.0977C26.1587 21.215 26.8647 19.1342 27.5335 17.1277C27.7069 16.6075 27.8927 16.0749 28.0785 15.5423C28.128 15.4556 28.2147 15.2822 28.3138 15.1212C29.0198 13.8454 29.9859 12.099 28.8217 11.1701Z" fill="white"/>
<path d="M45.716 14.39C43.6724 10.6 40.4025 8.30858 36.2656 7.7636C36.2533 7.7636 36.2409 7.7636 36.2161 7.7636C35.9684 7.73883 35.7331 7.73883 35.5101 7.73883C35.0518 7.72645 34.6307 7.72645 34.383 7.57782C34.3706 7.57782 34.3706 7.56543 34.3582 7.56543C33.5655 7.11954 30.4443 3.54003 30.2709 1.00093C30.2337 0.455952 29.7631 0.0472189 29.2181 0.0843765C28.6731 0.121534 28.2644 0.592196 28.3015 1.13717C28.5121 4.43181 32.0049 8.50675 33.3797 9.29945C34.0734 9.70818 34.8165 9.72057 35.4853 9.73295C35.6835 9.73295 35.8693 9.73295 36.0427 9.75773C39.5603 10.216 42.2232 12.111 43.9696 15.3685C45.4188 18.0934 46.1496 21.6481 46.0133 25.4011C45.6293 34.8638 40.9475 41.7256 32.8224 44.7354C30.5186 45.6024 22.505 47.3488 16.0519 44.0046C16.0519 44.0046 16.0396 44.0046 16.0396 43.9922C14.8505 43.3977 13.7606 42.4068 12.5715 40.8586L12.5591 40.8338C11.6302 39.5829 10.3668 37.8612 7.87728 38.8397C5.11523 39.8801 5.11523 43.8807 5.11523 45.5776C5.11523 46.1226 5.56112 46.5685 6.1061 46.5685C6.65108 46.5685 7.09697 46.1226 7.09697 45.5776C7.09697 44.3886 7.09697 41.2549 8.58327 40.6852H8.59566C9.57414 40.3012 9.94572 40.6109 10.9737 41.9981L10.9985 42.0229L11.0109 42.0353C12.3733 43.8312 13.6986 45.0079 15.1602 45.7386C17.9594 47.1878 21.2292 47.9185 24.8707 47.9185C25.3785 47.9185 25.8863 47.9061 26.4065 47.8814C29.7507 47.6956 32.4632 46.9648 33.516 46.5561C37.9997 44.8964 41.5296 42.1715 44.0316 38.4434C46.4468 34.8391 47.7845 30.4545 47.9827 25.4382C48.1313 21.3385 47.3262 17.4246 45.716 14.39Z" fill="white"/>
<path d="M42.7432 23.8402C42.5822 23.4686 42.0249 22.3911 40.9473 22.2424C40.9349 22.2424 40.9225 22.2424 40.9101 22.2424C40.3775 22.1929 39.3495 22.3291 38.4701 23.8774C36.4017 27.0605 33.2061 28.7822 30.8776 29.6739C27.1866 31.1107 23.4461 31.3584 19.4826 31.6061C18.467 31.6681 17.2779 31.7919 16.1384 32.2502C14.3425 32.9314 13.0791 34.2939 12.6828 35.9907C12.2864 37.6876 12.7942 39.4712 14.0948 40.8955C14.9742 41.8369 16.2251 42.5924 17.9096 43.2117C19.9533 43.9548 22.1208 44.3388 24.3007 44.3264C25.8861 44.3264 27.4715 44.1282 29.0197 43.7567C32.5125 42.9144 35.8691 41.0442 38.7178 38.344C40.873 36.2632 42.285 34.1329 43.0405 31.8167C44.0066 29.129 43.8951 26.2307 42.7432 23.8402ZM41.1578 31.1603C41.1578 31.1726 41.1455 31.185 41.1455 31.185C40.489 33.1915 39.2504 35.0618 37.3306 36.9073C34.742 39.3721 31.6951 41.0689 28.5367 41.8369C25.1306 42.6543 21.6873 42.4933 18.5784 41.3538C17.216 40.846 16.188 40.2391 15.5439 39.5455C14.7017 38.6289 14.3549 37.5018 14.6026 36.449C14.8503 35.3962 15.6678 34.5416 16.8444 34.0957C16.8568 34.0957 16.8568 34.0957 16.8692 34.0833C17.761 33.7241 18.7518 33.625 19.6065 33.5755C23.5328 33.3278 27.6077 33.0677 31.5712 31.5194C36.2902 29.7235 38.8293 26.9491 40.1298 24.9302C40.1422 24.9178 40.1546 24.893 40.167 24.8682C40.2784 24.6329 40.4518 24.4223 40.65 24.2489C40.7615 24.3728 40.8482 24.509 40.9101 24.6577C40.9101 24.6701 40.9225 24.6825 40.9349 24.6948C41.8638 26.6146 41.9505 28.968 41.1578 31.1603Z" fill="white"/>
</g>
<defs>
<clipPath id="clip0_4522_859">
<rect width="48" height="48" fill="white"/>
</clipPath>
</defs>
</svg>
