<svg width="48" height="48" viewBox="0 0 48 48" fill="none" xmlns="http://www.w3.org/2000/svg">
<g clip-path="url(#clip0_4522_904)">
<path d="M32.8122 17.6244C31.9135 17.6244 31.0198 17.7049 30.1415 17.8607C30.2957 16.9869 30.375 16.0933 30.3749 15.1875C30.3748 11.1305 28.7951 7.31653 25.927 4.44834C23.0585 1.57969 19.2444 -9.37458e-05 15.1875 4.17236e-09C11.1307 4.17236e-09 7.31681 1.57988 4.44834 4.44834C1.57997 7.31681 9.37542e-05 11.1307 4.17211e-09 15.1874C-9.37458e-05 19.2443 1.57978 23.0585 4.44834 25.9271C7.31653 28.7952 11.1305 30.3749 15.1875 30.375C15.1877 30.375 15.1876 30.375 15.1879 30.375C19.2447 30.375 23.0589 28.7953 25.9271 25.9271C27.6515 24.2028 28.9093 22.1364 29.639 19.8813C30.6725 19.6287 31.738 19.4995 32.8123 19.4995C40.153 19.4995 46.1251 25.4717 46.1251 32.8123C46.1251 39.8377 40.6547 45.6089 33.7498 46.0916V26.7188C33.7498 26.201 33.33 25.7812 32.8123 25.7812C32.2946 25.7812 31.8748 26.201 31.8748 26.7188V46.0915C24.9699 45.6088 19.4995 39.8377 19.4995 32.8122C19.4995 32.2944 19.0797 31.8747 18.562 31.8747C18.0443 31.8747 17.6245 32.2944 17.6245 32.8122C17.6245 41.1868 24.4377 48 32.8123 48C41.1869 48 48 41.1868 48 32.8123C48 24.4376 41.1868 17.6244 32.8122 17.6244ZM24.6012 24.6013C22.0871 27.1154 18.7439 28.5 15.1875 28.5C11.6312 28.4999 8.28825 27.1153 5.77425 24.6013C3.25969 22.0868 1.87491 18.7435 1.875 15.1875C1.87509 11.9459 3.02625 8.88159 5.1345 6.46041L21.0933 22.4192C21.2764 22.6023 21.5163 22.6938 21.7562 22.6938C21.9961 22.6938 22.236 22.6023 22.4191 22.4192C22.7852 22.0531 22.7852 21.4595 22.4191 21.0934L6.46041 5.1345C8.88169 3.02625 11.946 1.875 15.1875 1.875C18.7436 1.87491 22.0868 3.25969 24.6012 5.77416C27.1154 8.28825 28.4999 11.6313 28.5 15.1875C28.5001 18.7439 27.1155 22.087 24.6012 24.6013Z" fill="white"/>
<path d="M33.4752 22.3059C33.3009 22.1316 33.0591 22.0312 32.8125 22.0312C32.5649 22.0312 32.3241 22.1316 32.1497 22.3059C31.9744 22.4803 31.875 22.7222 31.875 22.9688C31.875 23.2153 31.9744 23.4572 32.1497 23.6316C32.3241 23.8059 32.565 23.9062 32.8125 23.9062C33.0591 23.9062 33.3009 23.8059 33.4752 23.6316C33.6496 23.4572 33.75 23.2153 33.75 22.9688C33.75 22.7222 33.6497 22.4803 33.4752 22.3059Z" fill="white"/>
<path d="M12.5683 4.81831C12.4073 4.32612 11.8777 4.05772 11.3859 4.2185C11.377 4.2214 11.3613 4.22675 11.3527 4.22994C10.8655 4.40534 10.6127 4.94244 10.7881 5.42956C10.9258 5.81187 11.2861 6.04981 11.6702 6.04981C11.7727 6.04981 11.8767 6.03284 11.9787 5.99731C12.4645 5.8325 12.7281 5.30703 12.5683 4.81831Z" fill="white"/>
<path d="M23.396 6.97991C21.1051 4.68894 17.9341 3.45332 14.6947 3.59038C14.1774 3.61223 13.7758 4.04938 13.7977 4.56669C13.8197 5.08401 14.255 5.48535 14.774 5.46379C17.4882 5.34941 20.1492 6.38479 22.0701 8.30573C22.2532 8.48882 22.4931 8.58032 22.733 8.58032C22.973 8.58032 23.2129 8.48873 23.396 8.30573C23.762 7.93963 23.762 7.34601 23.396 6.97991Z" fill="white"/>
</g>
<defs>
<clipPath id="clip0_4522_904">
<rect width="48" height="48" fill="white"/>
</clipPath>
</defs>
</svg>
