<svg width="20" height="20" viewBox="0 0 20 20" fill="none" xmlns="http://www.w3.org/2000/svg">
<g clip-path="url(#clip0_4652_7691)">
<path d="M16.875 11.25C17.0443 11.25 17.1908 11.3118 17.3145 11.4355C17.4382 11.5592 17.5 11.7057 17.5 11.875C17.5 12.0443 17.4382 12.1908 17.3145 12.3145C17.1908 12.4382 17.0443 12.5 16.875 12.5C16.7057 12.5 16.5592 12.4382 16.4355 12.3145C16.3118 12.1908 16.25 12.0443 16.25 11.875C16.25 11.7057 16.3118 11.5592 16.4355 11.4355C16.5592 11.3118 16.7057 11.25 16.875 11.25ZM10.9863 11.0645C10.472 10.7129 9.91862 10.4492 9.32617 10.2734C8.73372 10.0977 8.125 10.0065 7.5 10C6.92708 10 6.3737 10.0749 5.83984 10.2246C5.30599 10.3743 4.80794 10.5827 4.3457 10.8496C3.88346 11.1165 3.46354 11.4421 3.08594 11.8262C2.70833 12.2103 2.38281 12.6335 2.10938 13.0957C1.83594 13.5579 1.62435 14.056 1.47461 14.5898C1.32487 15.1237 1.25 15.6771 1.25 16.25H0C0 15.4883 0.113932 14.7428 0.341797 14.0137C0.569661 13.2845 0.898438 12.6107 1.32812 11.9922C1.75781 11.3737 2.26888 10.8236 2.86133 10.3418C3.45378 9.86003 4.11458 9.49219 4.84375 9.23828C4.47917 9.00391 4.15365 8.73372 3.86719 8.42773C3.58073 8.12174 3.33333 7.78646 3.125 7.42188C2.91667 7.05729 2.76367 6.67318 2.66602 6.26953C2.56836 5.86589 2.51302 5.44271 2.5 5C2.5 4.3099 2.63021 3.66211 2.89062 3.05664C3.15104 2.45117 3.50586 1.92057 3.95508 1.46484C4.4043 1.00911 4.9349 0.651042 5.54688 0.390625C6.15885 0.130208 6.8099 0 7.5 0C8.1901 0 8.83789 0.130208 9.44336 0.390625C10.0488 0.651042 10.5794 1.00586 11.0352 1.45508C11.4909 1.9043 11.849 2.4349 12.1094 3.04688C12.3698 3.65885 12.5 4.3099 12.5 5C12.5 5.4362 12.4479 5.85612 12.3438 6.25977C12.2396 6.66341 12.0833 7.05078 11.875 7.42188C11.6667 7.79297 11.4225 8.12826 11.1426 8.42773C10.8626 8.72721 10.5339 8.9974 10.1562 9.23828C10.6836 9.42708 11.1914 9.6875 11.6797 10.0195L10.9863 11.0645ZM3.75 5C3.75 5.52083 3.84766 6.00586 4.04297 6.45508C4.23828 6.9043 4.50521 7.30143 4.84375 7.64648C5.18229 7.99154 5.57943 8.26172 6.03516 8.45703C6.49089 8.65234 6.97917 8.75 7.5 8.75C8.01432 8.75 8.49935 8.65234 8.95508 8.45703C9.41081 8.26172 9.80794 7.99479 10.1465 7.65625C10.485 7.31771 10.7552 6.92057 10.957 6.46484C11.1589 6.00911 11.2565 5.52083 11.25 5C11.25 4.48568 11.1523 4.00065 10.957 3.54492C10.7617 3.08919 10.4948 2.69206 10.1562 2.35352C9.81771 2.01497 9.41732 1.74479 8.95508 1.54297C8.49284 1.34115 8.00781 1.24349 7.5 1.25C6.97917 1.25 6.49414 1.34766 6.04492 1.54297C5.5957 1.73828 5.19857 2.00521 4.85352 2.34375C4.50846 2.68229 4.23828 3.08268 4.04297 3.54492C3.84766 4.00716 3.75 4.49219 3.75 5ZM16.25 8.75C16.7643 8.75 17.2493 8.84766 17.7051 9.04297C18.1608 9.23828 18.5579 9.50521 18.8965 9.84375C19.235 10.1823 19.5052 10.5827 19.707 11.0449C19.9089 11.5072 20.0065 11.9922 20 12.5C20 13.0208 19.9023 13.5059 19.707 13.9551C19.5117 14.4043 19.2448 14.8014 18.9062 15.1465C18.5677 15.4915 18.1673 15.7617 17.7051 15.957C17.2428 16.1523 16.7578 16.25 16.25 16.25C15.8268 16.25 15.4102 16.1751 15 16.0254V17.5H13.75V18.75H12.5V20H8.75V17.2461L12.6074 13.3789C12.5358 13.0794 12.5 12.7865 12.5 12.5C12.5 11.9857 12.5977 11.5007 12.793 11.0449C12.9883 10.5892 13.2552 10.1921 13.5938 9.85352C13.9323 9.51497 14.3294 9.24479 14.7852 9.04297C15.2409 8.84115 15.7292 8.74349 16.25 8.75ZM16.25 15C16.5951 15 16.9173 14.9349 17.2168 14.8047C17.5163 14.6745 17.7832 14.4954 18.0176 14.2676C18.252 14.0397 18.431 13.776 18.5547 13.4766C18.6784 13.1771 18.7435 12.8516 18.75 12.5C18.75 12.1549 18.6849 11.8327 18.5547 11.5332C18.4245 11.2337 18.2454 10.9668 18.0176 10.7324C17.7897 10.498 17.526 10.319 17.2266 10.1953C16.9271 10.0716 16.6016 10.0065 16.25 10C15.9049 10 15.5827 10.0651 15.2832 10.1953C14.9837 10.3255 14.7168 10.5046 14.4824 10.7324C14.248 10.9603 14.069 11.224 13.9453 11.5234C13.8216 11.8229 13.7565 12.1484 13.75 12.5C13.75 12.7279 13.7793 12.9362 13.8379 13.125C13.8965 13.3138 13.9648 13.5124 14.043 13.7207L10 17.7539V18.75H11.25V17.5H12.5V16.25H13.75V15.3613L14.6582 14.4629C14.9186 14.6126 15.1693 14.7396 15.4102 14.8438C15.651 14.9479 15.931 15 16.25 15Z" fill="#999999"/>
</g>
<defs>
<clipPath id="clip0_4652_7691">
<rect width="20" height="20" fill="white"/>
</clipPath>
</defs>
</svg>
