<svg width="33" height="32" viewBox="0 0 33 32" fill="none" xmlns="http://www.w3.org/2000/svg">
<path d="M9.25 24.25C9.25 25.4905 10.2595 26.5 11.5 26.5C12.7405 26.5 13.75 25.4905 13.75 24.25C13.75 23.0095 12.7405 22 11.5 22C10.2595 22 9.25 23.0095 9.25 24.25ZM12.25 24.25C12.25 24.6632 11.9132 25 11.5 25C11.0868 25 10.75 24.6632 10.75 24.25C10.75 23.8368 11.0868 23.5 11.5 23.5C11.9132 23.5 12.25 23.8368 12.25 24.25Z" fill="#111111"/>
<path d="M22.75 24.25C22.75 23.0095 21.7405 22 20.5 22C19.2595 22 18.25 23.0095 18.25 24.25C18.25 25.4905 19.2595 26.5 20.5 26.5C21.7405 26.5 22.75 25.4905 22.75 24.25ZM19.75 24.25C19.75 23.8368 20.0868 23.5 20.5 23.5C20.9132 23.5 21.25 23.8368 21.25 24.25C21.25 24.6632 20.9132 25 20.5 25C20.0868 25 19.75 24.6632 19.75 24.25Z" fill="#111111"/>
<path d="M7.075 6.25C7.168 7.13575 8.203 16.9667 8.36275 18.4855C8.4835 19.6337 9.44575 20.5 10.6007 20.5H22.288C23.3418 20.5 24.2673 19.7515 24.4885 18.721L26.29 10.3142C26.3852 9.86875 26.2758 9.4105 25.9893 9.05725C25.7028 8.70325 25.2775 8.5 24.8223 8.5H8.82025L8.49625 5.422C8.45575 5.0395 8.134 4.75 7.75 4.75H5.5C5.086 4.75 4.75 5.086 4.75 5.5C4.75 5.914 5.086 6.25 5.5 6.25H7.075ZM24.8223 10L23.0215 18.4067C22.9472 18.7502 22.639 19 22.2872 19H10.6007C10.2152 19 9.895 18.7112 9.8545 18.3287L8.97775 10H24.8223Z" fill="#111111"/>
</svg>
