<svg width="24" height="25" viewBox="0 0 24 25" fill="none" xmlns="http://www.w3.org/2000/svg">
<g clip-path="url(#clip0_4522_3698)">
<path d="M10.5 18.0898V11.0469L3 7.29688V17.6094L9.375 20.8086L9.01172 22.2969L1.5 18.5469V5.60938L11.25 0.746094L21 5.60938V8.77344C20.4531 8.85938 19.9531 9.03516 19.5 9.30078V7.29688L12 11.0469V16.5898L10.5 18.0898ZM8.83594 3.61719L15.6797 7.53125L18.5742 6.07812L11.25 2.41016L8.83594 3.61719ZM11.25 9.74609L14.0625 8.33984L7.21875 4.42578L3.92578 6.07812L11.25 9.74609ZM21.6562 10.5781C21.9844 10.5781 22.2891 10.6367 22.5703 10.7539C22.8516 10.8711 23.1016 11.0312 23.3203 11.2344C23.5391 11.4375 23.7031 11.6836 23.8125 11.9727C23.9219 12.2617 23.9844 12.5703 24 12.8984C24 13.2031 23.9414 13.5 23.8242 13.7891C23.707 14.0781 23.5391 14.332 23.3203 14.5508L14.918 22.9531L10.5 24.0547L11.6016 19.6367L20.0039 11.2461C20.2305 11.0195 20.4844 10.8516 20.7656 10.7422C21.0469 10.6328 21.3438 10.5781 21.6562 10.5781ZM22.2539 13.4961C22.418 13.332 22.5 13.1328 22.5 12.8984C22.5 12.6562 22.4219 12.4609 22.2656 12.3125C22.1094 12.1641 21.9062 12.0859 21.6562 12.0781C21.5469 12.0781 21.4414 12.0938 21.3398 12.125C21.2383 12.1562 21.1484 12.2148 21.0703 12.3008L12.9609 20.4102L12.5625 21.9922L14.1445 21.5938L22.2539 13.4961Z" fill="white"/>
</g>
<defs>
<clipPath id="clip0_4522_3698">
<rect width="24" height="24" fill="white" transform="translate(0 0.078125)"/>
</clipPath>
</defs>
</svg>
