<svg width="33" height="32" viewBox="0 0 33 32" fill="none" xmlns="http://www.w3.org/2000/svg">
<path d="M25.75 10.4824H6.25C5.00927 10.4824 4 11.4917 4 12.7324L4 25.7493C4 26.9901 5.00927 27.9993 6.25 27.9993H25.75C26.9907 27.9993 28 26.9901 28 25.7493V12.7324C28 11.4917 26.9907 10.4824 25.75 10.4824ZM26.5 25.7493C26.5 26.1628 26.1638 26.4993 25.75 26.4993H6.25C5.83618 26.4993 5.5 26.1628 5.5 25.7493V12.7324C5.5 12.319 5.83618 11.9824 6.25 11.9824H25.75C26.1638 11.9824 26.5 12.319 26.5 12.7324V25.7493Z" fill="#111111"/>
<rect x="7" y="7" width="18" height="1.49805" fill="#111111"/>
<rect x="9" y="4" width="14" height="1.49805" fill="#111111"/>
</svg>
