<svg width="17" height="17" viewBox="0 0 17 17" fill="none" xmlns="http://www.w3.org/2000/svg">
<path d="M14.1211 3.4067H11.6271C11.6264 3.4067 11.6258 3.40625 11.625 3.40625H9.02001C9.01926 3.40625 9.01866 3.4067 9.01791 3.4067H3.33691C3.06081 3.4067 2.83691 3.6306 2.83691 3.9067C2.83691 4.1828 3.06081 4.4067 3.33691 4.4067H8.52001V7.4163C8.52001 7.6913 8.74501 7.9163 9.02001 7.9163H11.625C11.9 7.9163 12.125 7.6913 12.125 7.4163V4.4067H14.1211C14.4597 4.4067 14.7351 4.6821 14.7351 5.0207V12.9319C14.7351 13.2705 14.4597 13.5458 14.1211 13.5458H6.20996C5.87156 13.5458 5.59621 13.2705 5.59621 12.9319V7.43575C5.59621 7.15965 5.37231 6.93575 5.09621 6.93575H3.77421C3.49811 6.93575 3.27421 7.15965 3.27421 7.43575C3.27421 7.71185 3.49811 7.93575 3.77421 7.93575H4.59621V12.9319C4.59621 13.8218 5.32011 14.5458 6.20996 14.5458H14.1211C15.011 14.5458 15.7351 13.8218 15.7351 12.9319V5.02075C15.7351 4.13085 15.011 3.4067 14.1211 3.4067V3.4067ZM11.125 6.9163H9.52001V4.4067H11.125V6.9163Z" fill="black"/>
<path d="M1.76514 6.17188H4.85034C5.12644 6.17188 5.35034 5.94798 5.35034 5.67188C5.35034 5.39577 5.12644 5.17188 4.85034 5.17188H1.76514C1.48904 5.17188 1.26514 5.39577 1.26514 5.67188C1.26514 5.94798 1.48899 6.17188 1.76514 6.17188V6.17188Z" fill="black"/>
<path d="M13.1845 12.5977C13.4606 12.5977 13.6845 12.3738 13.6845 12.0977C13.6845 11.8216 13.4606 11.5977 13.1845 11.5977H11.623C11.3469 11.5977 11.123 11.8216 11.123 12.0977C11.123 12.3738 11.3469 12.5977 11.623 12.5977H13.1845Z" fill="black"/>
</svg>
