<svg width="33" height="32" viewBox="0 0 33 32" fill="none" xmlns="http://www.w3.org/2000/svg">
<path d="M21.0625 5.5C20.1133 5.5011 19.1744 5.69666 18.3037 6.0746C17.433 6.45255 16.649 7.00487 16 7.6975C15.0489 6.68242 13.8146 5.97669 12.4574 5.67195C11.1001 5.3672 9.68258 5.47751 8.38881 5.98854C7.09504 6.49958 5.98478 7.38775 5.20215 8.53775C4.41953 9.68775 4.00068 11.0465 4 12.4375C4 19.345 15.1413 26.125 15.625 26.3912C15.7416 26.4613 15.8752 26.4984 16.0112 26.4984C16.1473 26.4984 16.2809 26.4613 16.3975 26.3912C16.8588 26.125 28 19.345 28 12.4375C27.998 10.5982 27.2665 8.83474 25.9659 7.53414C24.6653 6.23354 22.9018 5.50199 21.0625 5.5ZM16 24.865C14.0612 23.6275 5.5 17.845 5.5 12.4375C5.50096 11.2825 5.86969 10.1578 6.55276 9.22637C7.23582 8.29498 8.19772 7.60528 9.29906 7.25725C10.4004 6.90922 11.584 6.92093 12.6782 7.29068C13.7724 7.66043 14.7205 8.36902 15.385 9.31375C15.4542 9.41202 15.5461 9.49221 15.6528 9.54756C15.7595 9.60291 15.8779 9.6318 15.9981 9.6318C16.1183 9.6318 16.2368 9.60291 16.3435 9.54756C16.4502 9.49221 16.542 9.41202 16.6113 9.31375C17.2752 8.3674 18.2235 7.65728 19.3184 7.28648C20.4134 6.91569 21.598 6.90352 22.7004 7.25174C23.8027 7.59995 24.7654 8.29044 25.4486 9.22295C26.1319 10.1555 26.5002 11.2815 26.5 12.4375C26.5 17.8412 17.9388 23.6237 16 24.865Z" fill="#111111"/>
</svg>
