<svg width="33" height="32" viewBox="0 0 33 32" fill="none" xmlns="http://www.w3.org/2000/svg">
<path d="M25.6903 11.0129L18.1903 5.47506C17.5575 5.00426 16.7897 4.75 16.001 4.75C15.2123 4.75 14.4446 5.00426 13.8118 5.47506L6.31177 11.0129C5.82583 11.3766 5.43159 11.8488 5.16048 12.3918C4.88937 12.9349 4.7489 13.5338 4.75027 14.1407V23.3999C4.73833 24.4074 5.12637 25.3786 5.82933 26.1004C6.53229 26.8223 7.49279 27.2359 8.50027 27.2507H23.5003C24.5078 27.2359 25.4683 26.8222 26.1713 26.1003C26.8743 25.3784 27.2623 24.4072 27.2503 23.3996V14.1407C27.2519 13.5339 27.1117 12.935 26.8409 12.392C26.57 11.8489 26.176 11.3767 25.6903 11.0129ZM25.7503 23.3996C25.7627 24.0095 25.5329 24.5994 25.1111 25.0401C24.6894 25.4808 24.1101 25.7363 23.5003 25.7507H8.50027C7.89044 25.7363 7.31118 25.4808 6.88943 25.0401C6.46767 24.5994 6.23783 24.0095 6.25027 23.3996V14.1407C6.24844 13.7687 6.33351 13.4014 6.49869 13.0681C6.66387 12.7347 6.9046 12.4446 7.20172 12.2207L14.7017 6.68286C15.0769 6.40324 15.5323 6.2522 16.0003 6.2522C16.4682 6.2522 16.9236 6.40324 17.2988 6.68286L24.7988 12.2207C25.0959 12.4446 25.3367 12.7347 25.5018 13.0681C25.667 13.4014 25.7521 13.7687 25.7503 14.1407V23.3996Z" fill="#111111"/>
<path d="M25.7503 23.3996C25.7627 24.0095 25.5329 24.5994 25.1111 25.0401C24.6894 25.4808 24.1101 25.7363 23.5003 25.7507H8.50027C7.89044 25.7363 7.31118 25.4808 6.88943 25.0401C6.46767 24.5994 6.23783 24.0095 6.25027 23.3996V14.1407C6.24844 13.7687 6.33351 13.4014 6.49869 13.0681C6.66387 12.7347 6.9046 12.4446 7.20172 12.2207L14.7017 6.68286C15.0769 6.40324 15.5323 6.2522 16.0003 6.2522C16.4682 6.2522 16.9236 6.40324 17.2988 6.68286L24.7988 12.2207C25.0959 12.4446 25.3367 12.7347 25.5018 13.0681C25.667 13.4014 25.7521 13.7687 25.7503 14.1407V23.3996Z" fill="#111111"/>
<path d="M20.5 16.75H11.5C11.3011 16.75 11.1103 16.829 10.9697 16.9697C10.829 17.1103 10.75 17.3011 10.75 17.5C10.75 17.6989 10.829 17.8897 10.9697 18.0303C11.1103 18.171 11.3011 18.25 11.5 18.25H20.5C20.6989 18.25 20.8897 18.171 21.0303 18.0303C21.171 17.8897 21.25 17.6989 21.25 17.5C21.25 17.3011 21.171 17.1103 21.0303 16.9697C20.8897 16.829 20.6989 16.75 20.5 16.75Z" fill="white"/>
<path d="M20.5 21.25H11.5C11.3011 21.25 11.1103 21.329 10.9697 21.4697C10.829 21.6103 10.75 21.8011 10.75 22C10.75 22.1989 10.829 22.3897 10.9697 22.5303C11.1103 22.671 11.3011 22.75 11.5 22.75H20.5C20.6989 22.75 20.8897 22.671 21.0303 22.5303C21.171 22.3897 21.25 22.1989 21.25 22C21.25 21.8011 21.171 21.6103 21.0303 21.4697C20.8897 21.329 20.6989 21.25 20.5 21.25Z" fill="white"/>
</svg>
