<svg width="20" height="20" viewBox="0 0 20 20" fill="none" xmlns="http://www.w3.org/2000/svg">
<g clip-path="url(#clip0_4522_3717)">
<path d="M9.01588 14.0859C7.46541 13.9242 6.06744 13.5423 4.87055 12.6062C4.72204 12.4898 4.56871 12.3775 4.43319 12.2474C3.90931 11.7443 3.85653 11.168 4.27106 10.5742C4.62569 10.066 5.22099 9.93009 5.83975 10.2219C5.95956 10.2784 6.07372 10.349 6.18306 10.4249C8.41366 11.9575 11.4779 11.9998 13.7169 10.4938C13.9387 10.3237 14.1759 10.185 14.4507 10.1142C14.985 9.97701 15.4833 10.1733 15.7701 10.6408C16.0977 11.1747 16.0935 11.6959 15.6899 12.1104C15.0707 12.7459 14.326 13.2057 13.4987 13.5266C12.7163 13.8299 11.8594 13.9826 11.0112 14.084C11.1392 14.2233 11.1996 14.2918 11.2796 14.3722C12.4312 15.5293 13.5879 16.6816 14.7358 17.8422C15.1268 18.2377 15.2085 18.7281 14.9932 19.1881C14.7578 19.6908 14.2307 20.0215 13.714 19.9861C13.3866 19.9635 13.1313 19.8005 12.9044 19.572C12.0353 18.6975 11.1499 17.8391 10.2984 16.948C10.0506 16.6889 9.93145 16.7379 9.71277 16.9629C8.83846 17.863 7.94991 18.7492 7.05612 19.6304C6.65478 20.0261 6.1772 20.0973 5.71177 19.8713C5.21701 19.6315 4.90218 19.1265 4.92648 18.6189C4.94324 18.2756 5.11206 18.0134 5.34771 17.7781C6.48742 16.6401 7.62398 15.4992 8.76096 14.3592C8.83616 14.2834 8.90633 14.203 9.01588 14.0859Z" fill="#111111"/>
<path d="M9.96043 10.1233C7.19443 10.1139 4.92634 7.82084 4.94247 5.05045C4.95839 2.24947 7.22795 -0.00773033 10.0212 1.98985e-05C12.8201 0.00756066 15.0666 2.29723 15.0525 5.12732C15.0383 7.89206 12.7545 10.1329 9.96043 10.1233ZM12.4742 5.05715C12.4694 3.68159 11.3739 2.5865 10.0011 2.58525C8.61671 2.58378 7.51136 3.69877 7.52204 5.0869C7.5323 6.45722 8.63723 7.54456 10.0138 7.53953C11.3863 7.53471 12.4788 6.4325 12.4742 5.05715Z" fill="#111111"/>
</g>
<defs>
<clipPath id="clip0_4522_3717">
<rect width="20" height="20" fill="white"/>
</clipPath>
</defs>
</svg>
