<svg width="20" height="20" viewBox="0 0 20 20" fill="none" xmlns="http://www.w3.org/2000/svg">
<g clip-path="url(#clip0_4522_3688)">
<path d="M15.6931 11.8457C15.9796 11.8457 16.253 11.8978 16.5134 12.002C16.7738 12.1061 17.0082 12.2624 17.2166 12.4707L19.365 14.6191C19.5668 14.821 19.7198 15.0521 19.824 15.3125C19.9281 15.5729 19.9835 15.8496 19.99 16.1426C19.99 16.429 19.9379 16.7025 19.8337 16.9629C19.7296 17.2233 19.5733 17.4577 19.365 17.666L19.2283 17.8027C18.8767 18.1543 18.5544 18.4668 18.2615 18.7402C17.9685 19.0137 17.6625 19.2415 17.3435 19.4238C17.0245 19.6061 16.6697 19.7493 16.2791 19.8535C15.8884 19.9577 15.4229 20.0065 14.8826 20C14.0688 20 13.2322 19.873 12.3728 19.6191C11.5134 19.3652 10.6606 19.0137 9.81421 18.5645C8.96786 18.1152 8.13452 17.5814 7.31421 16.9629C6.4939 16.3444 5.72241 15.6706 4.99976 14.9414C4.2771 14.2122 3.60653 13.4375 2.98804 12.6172C2.36955 11.7969 1.8422 10.9635 1.40601 10.1172C0.969808 9.27083 0.624756 8.42122 0.37085 7.56836C0.116943 6.71549 -0.00675456 5.89518 -0.000244141 5.10742C-0.000244141 4.56706 0.0453288 4.10482 0.136475 3.7207C0.22762 3.33659 0.367594 2.98503 0.556396 2.66602C0.745199 2.34701 0.973063 2.04427 1.23999 1.75781C1.50692 1.47135 1.81942 1.14909 2.17749 0.791016L2.33374 0.634766C2.53556 0.432943 2.76668 0.276693 3.0271 0.166016C3.28752 0.0553385 3.56421 0 3.85718 0C4.14364 0 4.41707 0.0553385 4.67749 0.166016C4.93791 0.276693 5.17228 0.432943 5.38062 0.634766L7.52905 2.7832C7.73088 2.98503 7.88387 3.21615 7.98804 3.47656C8.0922 3.73698 8.14754 4.01367 8.15405 4.30664C8.15405 4.5931 8.10522 4.84701 8.00757 5.06836C7.90991 5.28971 7.78947 5.49479 7.64624 5.68359C7.50301 5.8724 7.34676 6.03841 7.17749 6.18164C7.00822 6.32487 6.84871 6.47135 6.69897 6.62109C6.54924 6.77083 6.42879 6.91406 6.33765 7.05078C6.2465 7.1875 6.19767 7.34701 6.19116 7.5293C6.19116 7.77669 6.27905 7.98828 6.45483 8.16406L11.8357 13.5449C12.0115 13.7207 12.2231 13.8086 12.4705 13.8086C12.6397 13.8086 12.796 13.7598 12.9392 13.6621C13.0824 13.5645 13.2289 13.444 13.3787 13.3008C13.5284 13.1576 13.6749 13.0013 13.8181 12.832C13.9613 12.6628 14.1274 12.5033 14.3162 12.3535C14.505 12.2038 14.7068 12.0833 14.9216 11.9922C15.1365 11.901 15.3936 11.8522 15.6931 11.8457ZM14.8826 18.75C15.3513 18.75 15.7419 18.7077 16.0544 18.623C16.3669 18.5384 16.6534 18.4115 16.9138 18.2422C17.1742 18.0729 17.4216 17.8646 17.656 17.6172C17.8904 17.3698 18.1671 17.0898 18.4861 16.7773C18.6619 16.6016 18.7498 16.39 18.7498 16.1426C18.7498 16.0254 18.7042 15.8887 18.613 15.7324C18.5219 15.5762 18.3982 15.4069 18.2419 15.2246C18.0857 15.0423 17.9197 14.8633 17.7439 14.6875C17.5681 14.5117 17.3858 14.3359 17.197 14.1602C17.0082 13.9844 16.8422 13.8314 16.699 13.7012C16.5557 13.571 16.4353 13.457 16.3376 13.3594C16.1619 13.1836 15.947 13.0957 15.6931 13.0957C15.5238 13.0957 15.3676 13.1445 15.2244 13.2422C15.0811 13.3398 14.9379 13.4603 14.7947 13.6035C14.6514 13.7467 14.505 13.903 14.3552 14.0723C14.2055 14.2415 14.0362 14.401 13.8474 14.5508C13.6586 14.7005 13.4568 14.821 13.2419 14.9121C13.0271 15.0033 12.7699 15.0521 12.4705 15.0586C12.184 15.0586 11.9106 15.0065 11.6501 14.9023C11.3897 14.7982 11.1554 14.6419 10.947 14.4336L5.56616 9.05273C5.36434 8.85091 5.21134 8.61979 5.10718 8.35938C5.00301 8.09896 4.94767 7.82227 4.94116 7.5293C4.94116 7.24284 4.98999 6.98893 5.08765 6.76758C5.1853 6.54622 5.30575 6.34115 5.44897 6.15234C5.5922 5.96354 5.74845 5.79753 5.91772 5.6543C6.087 5.51107 6.2465 5.36133 6.39624 5.20508C6.54598 5.04883 6.66642 4.9056 6.75757 4.77539C6.84871 4.64518 6.89754 4.48893 6.90405 4.30664C6.90405 4.05273 6.81616 3.83789 6.64038 3.66211C6.55575 3.57747 6.44507 3.46029 6.30835 3.31055C6.17163 3.16081 6.01864 2.99479 5.84937 2.8125C5.68009 2.63021 5.50431 2.44792 5.32202 2.26562C5.13973 2.08333 4.95744 1.91406 4.77515 1.75781C4.59285 1.60156 4.42684 1.48112 4.2771 1.39648C4.12736 1.31185 3.98739 1.26302 3.85718 1.25C3.60978 1.25 3.39819 1.33789 3.22241 1.51367L2.39233 2.34375C2.15145 2.58464 1.94312 2.83203 1.76733 3.08594C1.59155 3.33984 1.46134 3.62305 1.37671 3.93555C1.29207 4.24805 1.2465 4.63867 1.23999 5.10742C1.23999 5.83659 1.35718 6.58854 1.59155 7.36328C1.82593 8.13802 2.1547 8.91276 2.57788 9.6875C3.00106 10.4622 3.4991 11.224 4.07202 11.9727C4.64494 12.7214 5.26994 13.4342 5.94702 14.1113C6.6241 14.7884 7.337 15.4069 8.08569 15.9668C8.83439 16.5267 9.59611 17.015 10.3708 17.4316C11.1456 17.8483 11.9138 18.1706 12.6755 18.3984C13.4373 18.6263 14.1729 18.7435 14.8826 18.75Z" fill="#999999"/>
</g>
<defs>
<clipPath id="clip0_4522_3688">
<rect width="20" height="20" fill="white"/>
</clipPath>
</defs>
</svg>
