<svg width="25" height="24" viewBox="0 0 25 24" fill="none" xmlns="http://www.w3.org/2000/svg">
<path d="M21.8924 4.68359C22.4532 5.41669 22.9219 6.21988 23.3185 7.07115L12.5124 15.1332L7.97363 12.2489V8.79772L12.4884 11.658L21.8924 4.68359Z" fill="white"/>
<path d="M3.36401 12.0114C3.36401 11.8452 3.36401 11.7049 3.38804 11.5387L0.651965 11.3965C0.651965 11.5868 0.62793 11.7991 0.62793 11.9874C0.62793 15.2983 1.96192 18.3008 4.11312 20.476L6.05401 18.5131C4.39354 16.8586 3.36401 14.5652 3.36401 12.0114Z" fill="white"/>
<path d="M12.4878 2.78956C12.652 2.78956 12.7922 2.78956 12.9565 2.81359L13.0967 0.0474728C12.9084 0.0474728 12.6981 0.0234375 12.5118 0.0234375C9.23692 0.0234375 6.26649 1.37145 4.11328 3.54669L6.05417 5.50961C7.69261 3.83111 9.98403 2.78956 12.4878 2.78956Z" fill="white"/>
<path d="M12.4878 21.2318C12.3236 21.2318 12.1834 21.2318 12.0191 21.2077L11.8789 23.9739C12.0672 23.9739 12.2775 23.9979 12.4638 23.9979C15.7387 23.9979 18.7111 22.6499 20.8623 20.4746L18.9214 18.5117C17.283 20.2143 15.0136 21.2318 12.4878 21.2318Z" fill="white"/>
<path d="M17.6339 4.39855L19.9494 2.67198C17.9144 1.01752 15.3185 0 12.4883 0V2.76612C14.4071 2.79016 16.1838 3.38104 17.6339 4.39855Z" fill="white"/>
<path d="M24.3718 12.0125C24.3718 11.2794 24.3017 10.5704 24.1835 9.86133L21.6337 11.7762C21.6337 11.8463 21.6337 11.9424 21.6337 12.0125C21.6337 14.7326 20.4639 17.1682 18.6172 18.8467L20.4639 20.9038C22.8515 18.7285 24.3718 15.5358 24.3718 12.0125Z" fill="white"/>
<path d="M12.4875 21.2341C9.79748 21.2341 7.38789 20.0524 5.72742 18.1836L3.69238 20.0524C5.86762 22.488 9.00229 24.0003 12.4875 24.0003V21.2341Z" fill="white"/>
<path d="M6.3825 5.17816L4.53375 3.12109C2.12416 5.32037 0.62793 8.48909 0.62793 12.0123H3.36401C3.36401 9.31632 4.53375 6.85866 6.3825 5.17816Z" fill="white"/>
</svg>
