<svg width="28" height="24" viewBox="0 0 28 24" fill="none" xmlns="http://www.w3.org/2000/svg">
<g clip-path="url(#clip0_4733_5031)">
<path d="M27.1544 11.2243L27.5053 10.1077L26.3442 10.1439C26.2462 10.1439 25.5331 10.1238 24.8413 9.62529C24.8929 9.63031 24.9444 9.63737 24.9971 9.63737C25.7091 9.63737 26.3979 9.21118 26.6739 8.60219L27.1736 7.50167C26.5475 7.50967 25.9751 7.43126 25.9751 7.43126C25.97 7.43031 25.519 7.37297 24.9971 6.84333C24.6229 6.46345 24.1597 6.26246 23.658 6.26246C23.4385 6.26246 23.2423 6.30162 23.0734 6.35488C23.0997 6.26544 23.125 6.17501 23.1391 6.08154C23.2989 5.05138 22.6315 4.26544 22.6315 4.26642L21.7586 3.19204L21.2175 4.45436C21.2155 4.45839 21.0789 4.75385 20.8342 4.89858C20.7603 4.52773 20.5793 4.11063 20.192 3.71166C19.4617 2.95987 18.5727 2.84831 18.1075 2.84831C17.8921 2.84831 17.7383 2.87141 17.7009 2.87746L16.647 3.08347C16.7077 2.84929 16.8372 2.44227 17.0738 2.07544L17.6554 1.17494L16.1919 1.34076L15.7256 0.356801L14.8235 0.819116L13.9891 0L13.1567 0.819116L12.2515 0.356801L11.7862 1.34076L10.3238 1.17494L10.9063 2.07544C11.143 2.44227 11.2724 2.84831 11.3321 3.08249L10.3269 2.88552L10.2924 2.87947C10.2418 2.87141 10.0891 2.84831 9.87269 2.84831C9.4075 2.84831 8.51846 2.96085 7.79021 3.71166C7.40184 4.10964 7.22082 4.52773 7.14599 4.89858C6.90325 4.75587 6.7677 4.46443 6.7677 4.46443L6.22564 3.19504L5.33858 4.27645C5.23041 4.41617 4.6954 5.15488 4.84099 6.08353C4.8562 6.176 4.8805 6.26649 4.90678 6.35593C4.73888 6.30266 4.54266 6.2634 4.32318 6.2634C3.82157 6.2634 3.35831 6.46445 2.98311 6.84432C2.4632 7.37203 2.01416 7.43126 2.01824 7.43126C2.01824 7.43126 1.54386 7.51573 0.809585 7.50266L1.30621 8.60318C1.5823 9.21322 2.2721 9.63836 2.98311 9.63836C3.03667 9.63836 3.08825 9.63136 3.14087 9.62629C2.45108 10.1248 1.73809 10.1449 1.65211 10.1459L0.46875 10.1077L0.826787 11.2234C1.00682 11.7982 1.6086 12.751 2.76159 12.8535C2.63617 13.3762 2.35806 13.9611 1.74718 14.2133L0.86627 14.5741L1.34667 15.4053C1.61769 15.8535 2.25391 16.3782 3.1601 16.3782C3.35627 16.3772 3.54539 16.3581 3.7275 16.3199C3.77401 16.5249 3.83265 16.7299 3.90142 16.933C4.17148 17.731 3.93883 18.2878 3.93585 18.2938L3.50092 19.1993L4.47185 19.4536C4.48397 19.4576 4.77729 19.537 5.1444 19.537C5.3113 19.537 5.47011 19.52 5.61983 19.4847C5.73307 19.4586 5.84129 19.4235 5.94544 19.3813C6.07086 19.6054 6.2236 19.8094 6.40164 19.9923C7.0236 20.6265 7.90455 20.9481 9.02112 20.9481H9.02514L9.82216 20.938L8.1756 21.6174L9.42569 22.2174C9.87975 22.4376 10.4189 22.6979 10.967 22.8968L10.8113 23.321L11.2421 23.516C11.2805 23.5331 12.1089 23.9019 13.4864 23.9803C13.4864 23.9803 13.8191 23.9954 14.0022 23.9954C14.1853 23.9954 14.514 23.9793 14.514 23.9793C15.8824 23.8989 16.7046 23.5341 16.7431 23.516L17.175 23.32L17.0172 22.8949C17.5816 22.6898 18.1398 22.4195 18.5747 22.2084L19.8015 21.6164L18.16 20.9361L18.9601 20.9461C20.0777 20.9461 20.9596 20.6245 21.5806 19.9893C21.7576 19.8074 21.9103 19.6033 22.0367 19.3792C22.1409 19.4215 22.2501 19.4566 22.3634 19.4827C22.5121 19.5179 22.6709 19.535 22.8378 19.535C23.1988 19.535 23.4952 19.4556 23.5033 19.4536L24.4782 19.1973L24.0534 18.3089C24.0433 18.2857 23.8107 17.7299 24.0807 16.931C24.1495 16.7269 24.2072 16.5219 24.2537 16.3179C24.4368 16.3561 24.6279 16.3762 24.8251 16.3762C25.9791 16.3762 26.5324 15.5691 26.6396 15.3942L27.1149 14.5721L26.234 14.2123C25.6221 13.9601 25.345 13.3741 25.2206 12.8525C26.3574 12.756 26.9683 11.8032 27.1544 11.2243ZM11.409 3.4674L11.3969 3.47045L11.407 3.45738L11.409 3.4674Z" fill="white"/>
<path d="M13.9902 3.41797C13.0576 3.41895 12.3588 3.72248 12.2061 4.07928L13.9902 4.77877L15.7743 4.07928C15.6226 3.72248 14.9237 3.41895 13.9902 3.41797Z" fill="white"/>
<path d="M14.0085 21.935H14.0065H13.9913H13.9742H13.9732C13.4078 21.939 12.63 21.8234 12.2547 21.7148L11.8037 22.9279C12.1011 23.0335 13.1084 23.2345 13.9913 23.2345C14.8722 23.2345 15.8806 23.0325 16.177 22.9279L15.7269 21.7148C15.3506 21.8244 14.5739 21.939 14.0085 21.935Z" fill="white"/>
<path d="M17.4215 20.7305C17.0857 20.9194 16.3363 21.2029 15.9004 21.3345L16.2665 22.3365C16.9411 22.1536 17.4974 21.9396 17.9575 21.7104L17.198 21.4591L17.4215 20.7305Z" fill="white"/>
<path d="M10.5594 20.7305L10.784 21.4591L10.0234 21.7104C10.4826 21.9396 11.0419 22.1536 11.7134 22.3365L12.0796 21.3345C11.6457 21.2029 10.8952 20.9184 10.5594 20.7305Z" fill="white"/>
<path d="M13.9903 2.25761C14.6932 2.25761 15.3829 2.42446 15.9129 2.71796C15.9615 2.55612 16.0292 2.36013 16.1213 2.15514L15.921 2.17922L15.7107 2.20134L15.6217 2.01139L15.3537 1.44857L14.8651 1.70186L14.675 1.79834L14.5233 1.64958L13.9923 1.12695L13.4624 1.64958L13.3106 1.79834L13.1204 1.70186L12.629 1.44857L12.364 2.01139L12.2729 2.20134L12.0626 2.17922L11.8623 2.15514C11.9544 2.36116 12.0211 2.55612 12.0707 2.71796C12.6016 2.42446 13.2894 2.25761 13.9903 2.25761Z" fill="white"/>
<path d="M24.7219 8.76416C24.8129 8.79531 24.906 8.80938 24.998 8.80938C25.3955 8.80938 25.7798 8.55407 25.9123 8.2616C25.9123 8.2616 25.1831 8.21738 24.3993 7.42642C24.1495 7.17012 23.8855 7.09375 23.6589 7.09375C23.307 7.09375 23.043 7.27864 23.043 7.27864C23.9897 7.77922 24.1828 8.58324 24.7219 8.76416Z" fill="white"/>
<path d="M2.98263 8.80938C3.07465 8.80938 3.16772 8.79531 3.25672 8.76416C3.79783 8.58324 3.99202 7.77922 4.93865 7.27864C4.93865 7.27864 4.67366 7.09375 4.3237 7.09375C4.09617 7.09375 3.83217 7.17012 3.58139 7.42642C2.79853 8.21738 2.06934 8.2616 2.06934 8.2616C2.19977 8.55407 2.58511 8.80938 2.98263 8.80938Z" fill="white"/>
<path d="M24.9794 12.0316C24.9956 12.0326 25.0098 12.0326 25.0269 12.0326C26.0191 12.0326 26.3559 10.9763 26.3559 10.9763H26.3367C26.1546 10.9763 24.679 10.9341 23.6362 9.61648C22.9495 8.75014 22.3872 7.9883 21.2757 7.68883L21.1664 7.66969L21.1421 7.55919C21.1118 7.39029 21.2281 7.23253 21.4921 7.0617C23.0254 6.06368 21.9847 4.79127 21.9847 4.79127C21.9847 4.79127 21.5468 5.80937 20.5666 5.80937C20.5434 5.80937 20.5181 5.80838 20.4938 5.80838C20.3826 5.80237 20.2754 5.79834 20.1672 5.77524L19.9861 5.74006C19.9861 5.74006 20.2653 4.98527 19.5917 4.29175C19.0839 3.76815 18.466 3.67969 18.109 3.67969C17.929 3.67969 17.8147 3.70284 17.8147 3.70284C18.1535 4.14304 18.3982 4.87271 18.0068 5.32291C17.669 5.70989 16.8438 5.72897 16.8438 6.30587C16.8438 6.55009 17.0733 6.83556 17.486 7.09181C18.7269 7.8687 19.9588 8.89891 20.4706 10.2798C21.1108 12.0025 20.3897 13.1452 19.3601 13.8005C19.3601 13.8005 19.6828 14.0959 20.151 14.1331C20.2461 14.1422 20.3391 14.1462 20.4261 14.1462C21.4142 14.1462 21.925 13.6859 21.925 13.6859C21.925 13.6859 21.841 14.3221 21.3262 14.9131C20.8519 15.4588 20.2289 15.7794 19.2792 15.7935C19.2792 15.7935 19.2488 16.2317 19.6695 16.6106C19.9386 16.8498 20.5606 16.9282 20.5606 16.9282C20.5606 16.9282 19.3965 17.1623 19.268 18.8709C19.1982 19.7966 18.9606 20.1181 18.9606 20.1181H18.9818C21.6833 20.1181 21.6134 17.8156 21.6134 17.8156C21.6134 17.8156 21.8016 18.497 22.5551 18.6749C22.6461 18.6991 22.7432 18.7081 22.8362 18.7081C23.079 18.7081 23.2894 18.6518 23.2894 18.6518C23.2894 18.6518 22.8949 17.8247 23.2863 16.6679C23.611 15.7081 23.5583 14.9965 23.5583 14.9965C23.5583 14.9965 23.9225 15.5432 24.8247 15.5483H24.8338C25.5852 15.5483 25.9129 14.9824 25.9129 14.9824C24.1116 14.2397 24.2896 11.8417 24.2896 11.8417C24.2896 11.8417 24.5233 12.0145 24.9794 12.0316ZM24.4372 14.5361C23.705 14.1774 23.2418 13.2246 23.1295 12.8809C23.0082 14.7703 22.0797 16.0819 20.9945 17.3443C20.4312 17.9985 20.2349 18.6347 20.2349 18.6347C20.2349 18.6347 20.3432 17.9141 20.8306 17.3271C21.8431 16.1181 22.8048 14.6135 22.8767 12.8738C22.9262 11.6597 22.6117 10.6748 22.1212 9.86373C22.3953 10.7089 22.3568 11.7442 21.4254 12.71C21.4254 12.71 23.2792 10.5019 20.6871 8.23859C19.6494 7.37722 18.5146 6.8456 17.93 6.46865C20.0418 7.15312 21.0724 6.39933 21.0724 6.39933C20.3978 6.98025 19.5249 6.97022 18.9839 6.88679C19.1305 6.95819 19.2832 7.03253 19.4481 7.11998C21.2281 8.08078 22.8281 9.6617 23.1012 11.8517V11.8346C23.5159 13.9844 24.4372 14.5361 24.4372 14.5361Z" fill="white"/>
<path d="M7.42032 16.9282C7.42032 16.9282 8.04229 16.8508 8.31136 16.6106C8.73103 16.2317 8.70177 15.7935 8.70177 15.7935C7.75101 15.7805 7.12904 15.4588 6.65163 14.9141C6.14092 14.3231 6.05595 13.6869 6.05595 13.6869C6.05595 13.6869 6.56666 14.1472 7.55379 14.1472C7.64283 14.1472 7.73486 14.1432 7.82991 14.1341C8.29819 14.097 8.62182 13.8015 8.62182 13.8015C7.59225 13.1462 6.87011 12.0025 7.50932 10.2798C8.02211 8.89991 9.25297 7.8687 10.4939 7.09181C10.9066 6.83556 11.1362 6.55109 11.1362 6.30587C11.1362 5.72897 10.3119 5.70989 9.97411 5.32291C9.58266 4.87271 9.82842 4.142 10.1662 3.70284C10.1662 3.70284 10.054 3.67969 9.8729 3.67969C9.51692 3.67969 8.89893 3.76815 8.39126 4.29175C7.71563 4.98527 7.99578 5.74006 7.99578 5.74006L7.81476 5.77524C7.70654 5.79834 7.59831 5.80237 7.48805 5.80838C7.46281 5.80838 7.4405 5.80937 7.41625 5.80937C6.43419 5.80937 5.99826 4.7923 5.99826 4.7923C5.99826 4.7923 4.95752 6.06463 6.48984 7.06264C6.75379 7.23352 6.86907 7.39133 6.83876 7.56018L6.81446 7.67074L6.70321 7.68982C5.59374 7.9893 5.03041 8.75119 4.34365 9.61752C3.30291 10.9331 1.82932 10.9763 1.64526 10.9763H1.625C1.625 10.9763 1.96179 12.0326 2.95399 12.0326C2.97014 12.0326 2.9843 12.0326 3.00149 12.0316C3.45769 12.0155 3.69232 11.8417 3.69232 11.8417C3.69232 11.8417 3.86827 14.2387 2.06902 14.9824C2.06902 14.9824 2.39672 15.5483 3.14818 15.5483H3.15727C4.06042 15.5432 4.42355 14.9965 4.42355 14.9965C4.42355 14.9965 4.37093 15.7081 4.69456 16.6679C5.08601 17.8247 4.69362 18.6518 4.69362 18.6518C4.69362 18.6518 4.90395 18.7081 5.14569 18.7081C5.2397 18.7081 5.33585 18.6991 5.42584 18.6749C6.17829 18.497 6.36746 17.8156 6.36746 17.8156C6.36746 17.8156 6.29863 20.1181 9.0001 20.1181H9.01933C9.01933 20.1181 8.78266 19.7966 8.71389 18.8709C8.5844 17.1623 7.42032 16.9282 7.42032 16.9282ZM6.98644 17.3443C5.90117 16.0819 4.97376 14.7703 4.85133 12.8809C4.73913 13.2235 4.27786 14.1774 3.54569 14.5361C3.54569 14.5361 4.46604 13.9844 4.87965 11.8346V11.8517C5.15379 9.66274 6.7528 8.08078 8.53386 7.11998C8.6967 7.03148 8.85138 6.95715 8.99707 6.88679C8.45595 6.97022 7.58316 6.98025 6.90857 6.39933C6.90857 6.39933 7.93918 7.15312 10.0499 6.46865C9.46534 6.8456 8.33158 7.37722 7.29386 8.23859C4.70067 10.5019 6.55558 12.71 6.55558 12.71C5.62306 11.7431 5.58564 10.7089 5.85973 9.86373C5.3682 10.6758 5.05461 11.6597 5.10524 12.8738C5.176 14.6135 6.13784 16.1181 7.14827 17.3271C7.63672 17.9131 7.74698 18.6347 7.74698 18.6347C7.74698 18.6347 7.54872 17.9985 6.98644 17.3443Z" fill="white"/>
<path d="M11.9934 8.50805C12.0378 8.55526 12.0813 8.60654 12.1228 8.65782C12.133 8.66989 12.142 8.68092 12.1521 8.69498C12.1905 8.74626 12.23 8.80052 12.2674 8.85583C12.2755 8.86686 12.2836 8.87993 12.2927 8.89299C12.3382 8.96132 12.3807 9.03168 12.4232 9.10403C12.8126 9.77245 13.4366 10.1714 13.9898 10.1724C14.5441 10.1714 15.1661 9.77245 15.5575 9.10403C15.601 9.02969 15.6445 8.95734 15.69 8.88996C15.6971 8.87993 15.7041 8.87088 15.7102 8.8608C15.7487 8.80355 15.7891 8.74726 15.8316 8.69299C15.8407 8.68092 15.8488 8.67088 15.8568 8.66085C15.9004 8.60758 15.9448 8.55526 15.9903 8.50706C15.9985 8.49901 16.0045 8.492 16.0116 8.48594C16.2098 8.28395 16.4465 8.13016 16.756 8.04475L16.6185 7.96534H16.6103L16.0622 7.64872L15.4989 7.32812L13.9939 8.14219L13.9898 8.13921L13.9868 8.14219L12.4808 7.32812L11.9185 7.64773L11.3693 7.96435H11.3633L11.2236 8.0437C11.5341 8.12917 11.7698 8.28092 11.9691 8.48296C11.9782 8.49101 11.9842 8.50005 11.9934 8.50805ZM13.381 8.44271H14.0182H14.6543V8.8769C14.5046 8.69498 14.2133 8.7322 14.2133 8.7322V9.35834C14.2133 9.35834 14.2245 9.66586 14.3327 9.79958H14.0182H13.7026C13.8128 9.66686 13.8229 9.35834 13.8229 9.35834V8.7322C13.8229 8.7322 13.5327 8.69498 13.381 8.8769V8.44271Z" fill="white"/>
<path d="M13.8598 7.60027V5.05856L12.2314 4.50977L12.6613 6.97319L13.8598 7.60027ZM13.5099 5.6827V6.09071L13.431 6.05453C13.4269 6.05155 13.3116 6.02536 13.1094 5.86661C12.7755 5.60931 12.7695 5.37215 12.7695 5.37215L13.5099 5.6827Z" fill="white"/>
<path d="M15.3205 6.97319L15.7484 4.50977L14.1211 5.05856V7.60027L15.3205 6.97319ZM14.471 5.6827L15.2113 5.37314C15.2113 5.37314 15.2053 5.61031 14.8705 5.8676C14.6692 6.02641 14.5529 6.05249 14.5489 6.05557L14.47 6.09175V5.6827H14.471Z" fill="white"/>
<path d="M11.5568 13.4946C11.7155 13.5518 11.9077 13.564 12.0059 13.564C12.0099 13.5518 12.015 13.5368 12.02 13.5187C12.0291 13.4895 12.0372 13.4614 12.0433 13.4293C12.0706 13.2885 12.0807 13.1287 12.0827 13.0262C12.016 12.985 11.9219 12.9116 11.8693 12.8021C11.8086 12.6755 11.7226 12.6172 11.5962 12.6172C11.4324 12.6172 11.2564 12.7147 11.1816 12.7609C11.1219 13.1116 11.3818 13.4303 11.5568 13.4946Z" fill="white"/>
<path d="M15.1587 12.1445C14.8562 12.4711 14.2646 13.04 14.2352 13.0692L14.1998 13.1053L12.3298 13.0762C12.3287 13.2602 12.2984 13.4169 12.2691 13.5315C12.264 13.5506 12.259 13.5707 12.2539 13.5908L14.479 13.9878C14.7106 13.8269 15.3478 13.3646 15.5945 13.1837C15.4145 12.9224 15.3974 12.6129 15.4378 12.3948C15.3204 12.3194 15.2305 12.235 15.1587 12.1445Z" fill="white"/>
<path d="M15.4118 9.90923C14.981 10.3344 14.5673 10.4912 14.1982 10.5274C14.1314 10.5344 14.0637 10.5384 13.9949 10.5384H13.9898H13.9858C13.917 10.5384 13.8482 10.5344 13.7815 10.5274C13.7167 10.5214 13.649 10.5113 13.5812 10.4962C13.5569 10.5917 13.5266 10.7917 13.6136 10.9806C13.6915 11.1525 13.8503 11.2801 14.0819 11.3646L14.1597 11.3947L14.1608 11.4781C14.1608 11.5033 14.1789 12.0439 14.7726 12.1937C14.8697 12.0942 14.9577 12.0048 15.0225 11.9304C14.9011 11.647 14.9648 11.3575 15.1408 11.2159C15.1327 11.246 15.0559 11.9555 15.6283 12.2188L15.7223 12.2631L15.694 12.3625C15.6849 12.3928 15.4938 13.0792 16.1865 13.3344L16.309 13.3807L16.2543 13.4993C16.2422 13.5254 15.9702 14.1485 16.6103 14.5023H17.999V13.4068C17.5055 13.3465 17.2961 12.9525 17.2425 12.6731C17.0128 12.634 16.8349 12.5355 16.7135 12.3746C16.4222 11.9938 16.6731 11.645 16.6761 11.6259C16.675 11.6289 16.6761 12.0008 16.9066 12.2299C17.021 12.3404 17.1565 12.4259 17.3618 12.445L17.4629 12.454L17.4721 12.5565C17.4741 12.5786 17.5297 13.0812 18 13.1606L17.999 10.9234C17.999 10.5766 18.1011 10.2278 18.2235 9.90625H15.4118V9.90923Z" fill="white"/>
<path d="M11.6751 10.9353L11.6377 12.3605L11.8005 12.3846L12.199 11.0178L11.9967 10.5977L11.6751 10.9353Z" fill="white"/>
<path d="M16.0693 17.47C16.0815 17.47 16.0957 17.472 16.1088 17.475C16.3566 17.5454 16.4193 18.4338 16.8542 18.5133C16.8967 18.5223 16.9361 18.5243 16.9705 18.5243C17.0959 18.5243 17.1707 18.471 17.2517 18.3766C17.2517 18.3766 17.0332 18.0349 16.8694 17.8047C16.6519 17.5032 16.483 17.1384 16.0784 17.1384C16.0693 17.1384 16.0572 17.1384 16.0471 17.1393C15.9136 17.1464 15.8317 17.2108 15.8317 17.2108C15.6678 17.1082 15.5151 17.073 15.3766 17.073C15.1227 17.073 14.9255 17.1886 14.8274 17.1886H14.8233L13.9191 17.1001C13.7776 17.0871 13.6663 16.9454 13.6259 16.8901C13.6157 16.875 13.6106 16.866 13.6106 16.866C13.6106 16.8419 13.6106 16.8167 13.6087 16.7946C13.5783 16.0599 13.0059 15.7454 12.8025 15.7403C12.8025 15.7403 12.8268 15.6007 12.7712 15.5474L12.572 15.7875L11.9176 15.4609L12.3838 16.0027L11.9884 16.4438C11.9388 16.4941 11.9449 16.5625 11.9651 16.5906L12.1361 16.7403L12.3525 16.6097C12.3636 16.6017 12.3829 16.5996 12.4071 16.5996C12.4667 16.5996 12.5568 16.6147 12.6377 16.6147C12.7257 16.6147 12.8025 16.5956 12.8117 16.5132C12.7844 16.7856 12.5305 17.259 12.6974 17.6308L12.8208 17.9112L12.0218 17.7966L11.6476 18.4248C11.5323 18.6339 11.514 18.86 11.6253 18.9826L11.7649 19.1565C11.7649 19.1565 11.9611 18.9494 12.0056 18.8138L11.9419 18.7444C11.8883 18.6861 11.8913 18.6339 11.9237 18.5706L12.1583 18.1836L13.1019 18.4047L13.1515 18.3203C13.2152 18.2147 13.3072 18.1826 13.4084 18.1826C13.4499 18.1826 13.4923 18.1876 13.5368 18.1947C13.7118 18.2288 14.0001 18.275 14.2883 18.275C14.6049 18.275 14.9184 18.2188 15.0853 18.0329C15.4271 18.5364 16.1199 18.6168 16.0653 18.8721L15.8833 19.7344C16.0036 19.7294 16.1199 19.7213 16.2302 19.7062L16.4031 18.8087C16.4223 18.7113 16.4406 18.5796 16.4406 18.5796C16.3738 18.5123 16.212 18.3696 16.1209 18.1966C15.9986 17.9635 16.0653 17.8419 15.951 17.5384C15.9551 17.5403 15.9895 17.47 16.0693 17.47ZM12.5396 16.2097C12.4931 16.2087 12.4597 16.1695 12.4617 16.1232C12.4658 16.079 12.5032 16.0438 12.5487 16.0479C12.5952 16.0499 12.6286 16.0901 12.6266 16.1343C12.6225 16.1785 12.5841 16.2127 12.5396 16.2097Z" fill="white"/>
<path d="M11.2515 18.2863C11.2515 18.2863 11.564 18.1586 11.5924 18.0671L11.5509 17.9636C11.5216 17.8963 11.5256 17.823 11.5823 17.7827L11.9201 17.5506L12.4844 17.6581C12.4844 17.6581 12.3823 17.5315 12.3924 17.3616L11.8543 17.248L11.3466 17.5556C11.1292 17.7174 11.113 17.9817 11.1848 18.1385L11.2515 18.2863Z" fill="white"/>
<path d="M15.2393 19.748C15.3404 19.744 15.4516 19.742 15.5741 19.742C15.5741 19.742 15.8643 18.8988 15.8805 18.8716C15.7177 18.8003 15.3799 18.6224 15.2494 18.541C15.3354 18.6686 15.5447 18.8154 15.5033 18.9279L15.2393 19.748Z" fill="white"/>
<path d="M18.0029 14.7461H9.97949V17.7452C9.97949 18.9713 10.8726 19.7391 12.1904 19.7391C13.2918 19.7391 13.5821 19.7814 13.9917 20.1854C14.2739 19.906 14.5075 19.8015 14.9869 19.7622L14.9981 19.7161L15.2509 18.9391C15.2367 18.922 14.8231 18.4547 14.8231 18.4547C14.6592 18.509 14.5217 18.518 14.2901 18.518C14.0524 18.518 13.7844 18.4909 13.4941 18.4366C13.4648 18.4296 13.4375 18.4276 13.4102 18.4276C13.3748 18.4276 13.3717 18.4306 13.3626 18.4477L13.312 18.5301L13.22 18.6809L13.0471 18.6416L12.2774 18.4618L12.1722 18.6346L12.1884 18.6527L12.2824 18.7552L12.241 18.8889C12.1844 19.0638 12.0003 19.2678 11.9447 19.3241L11.7525 19.5291L11.5775 19.309L11.446 19.1452C11.3075 18.9914 11.2751 18.7552 11.353 18.508C11.3509 18.51 11.3479 18.511 11.3449 18.511L11.1275 18.6005L11.0293 18.3894L10.9606 18.2396C10.8422 17.9764 10.8857 17.5914 11.2043 17.3592L11.8243 17.0114L12.414 17.1271C12.4281 17.0708 12.4494 16.8698 12.4665 16.8185C12.4554 16.8175 12.4443 16.8145 12.4332 16.8145L12.0933 16.9401L11.7656 16.715C11.7656 16.715 11.6372 16.5924 11.7535 16.4698L12.0711 15.9924L11.267 14.9893L12.5029 15.4939L12.5849 15.3924L12.7518 15.1944L12.9409 15.3733C12.9945 15.4245 13.0248 15.4878 13.04 15.5511C13.3808 15.6828 13.9907 16.0718 14.0443 16.704L13.8531 16.7803V16.7853C13.8967 16.8366 13.933 16.8577 13.9442 16.8597L14.8261 16.9461C14.8484 16.9421 14.8767 16.9321 14.908 16.923C15.0173 16.8858 15.1821 16.8326 15.3774 16.8326C15.5361 16.8326 15.6899 16.8688 15.8375 16.9371C15.8921 16.917 15.9589 16.9019 16.0357 16.8969L16.0782 16.8959C16.5505 16.8959 16.7852 17.2467 16.9733 17.5261C17.0047 17.5743 17.036 17.6205 17.0684 17.6657C17.2332 17.8969 17.4487 18.2356 17.4578 18.2497L17.5548 18.4004L17.4355 18.5381C17.3435 18.6436 17.2059 18.7673 16.9693 18.7673C16.9207 18.7673 16.8671 18.7622 16.8095 18.7512C16.7589 18.7421 16.7134 18.7271 16.6688 18.709C16.6618 18.7552 16.6527 18.8105 16.6436 18.8577L16.4888 19.6597C17.4143 19.4336 18.0019 18.7391 18.0019 17.7461L18.0029 14.7461Z" fill="#FFDD2D"/>
<path d="M9.97935 14.5043H16.2186C15.9071 14.1847 15.9112 13.7797 15.9911 13.5163C15.9 13.4731 15.8252 13.4209 15.7585 13.3646C15.5147 13.5435 14.7703 14.0822 14.5761 14.2169L14.5347 14.245L12.0861 13.8048H12.0365C11.9779 13.8048 11.8919 13.8028 11.7978 13.7917C11.7715 13.9013 11.6764 13.9767 11.5672 13.9767C11.5551 13.9767 11.5409 13.9757 11.5278 13.9726C11.4641 13.9616 11.4084 13.9294 11.371 13.8761C11.3326 13.8239 11.3174 13.7616 11.3286 13.6973L11.3377 13.645C11.0848 13.4681 10.8522 13.0731 10.9553 12.657L10.9654 12.6128L11.0008 12.5877C11.0059 12.5837 11.0484 12.5555 11.1111 12.5193L10.9331 12.4922C10.8664 12.4802 10.8218 12.4188 10.832 12.3535C10.8431 12.2872 10.9058 12.2399 10.9715 12.253L11.3953 12.3194L11.4338 10.8359L12.0648 10.1725L12.4583 10.9957L12.0426 12.4229L12.4168 12.4812C12.4825 12.4912 12.5281 12.5525 12.5179 12.6198C12.5078 12.6792 12.4573 12.7203 12.3976 12.7203C12.3915 12.7203 12.3844 12.7203 12.3784 12.7194L12.0739 12.6701C12.078 12.6792 12.084 12.6841 12.0881 12.6942C12.1205 12.7605 12.1923 12.8088 12.2348 12.8289L14.1018 12.8581C14.1807 12.7817 14.3769 12.5907 14.5782 12.3887C14.119 12.2158 13.9521 11.8218 13.9237 11.5605C13.6669 11.452 13.4899 11.2892 13.3918 11.0771C13.2724 10.8148 13.3149 10.5525 13.3463 10.4248C13.0975 10.3344 12.8355 10.1696 12.5685 9.90625H9.75684C9.87718 10.2278 9.97935 10.5766 9.97935 10.9233V14.5043Z" fill="#FFDD2D"/>
<path d="M12.5491 16.0472C12.5035 16.0431 12.4651 16.0784 12.4621 16.1225C12.459 16.1688 12.4934 16.2079 12.54 16.209C12.5844 16.213 12.6239 16.1788 12.6279 16.1336C12.6279 16.0893 12.5956 16.0481 12.5491 16.0472Z" fill="black"/>
<path d="M17.9916 21.4862L17.5293 21.3104L17.6568 20.836L17.7974 20.3184C17.7974 20.3184 16.9781 20.7596 15.8242 21.0912C15.4964 21.1847 15.2487 21.2269 15.2487 21.2269V21.5787C15.2487 21.5787 14.6317 21.6852 14.0077 21.6852H14.0006H13.9915H13.9793H13.9723C13.3482 21.6852 12.7313 21.5787 12.7313 21.5787V21.2269C12.7313 21.2269 12.4825 21.1847 12.1558 21.0912C11.0018 20.7596 10.1836 20.3184 10.1836 20.3184L10.3221 20.836L10.4526 21.3104L9.98937 21.4862L9.47559 21.6772C10.0653 21.9596 10.8814 22.3717 11.6289 22.5747L11.4529 23.0531C11.4529 23.0531 12.4006 23.4822 13.9793 23.4863V23.4873H13.9844H13.9915H13.9976H14.0016V23.4863C15.5824 23.4822 16.5291 23.0531 16.5291 23.0531L16.3521 22.5747C17.0995 22.3717 17.9177 21.9596 18.5044 21.6772L17.9916 21.4862ZM10.0238 21.7094L10.7844 21.4581L10.5599 20.7294C10.8946 20.9184 11.6461 21.2018 12.081 21.3335L11.7138 22.3355C11.0423 22.1516 10.483 21.9375 10.0238 21.7094ZM13.9915 23.235C13.1086 23.235 12.1002 23.033 11.8038 22.9285L12.2549 21.7154C12.6291 21.8239 13.4079 21.9395 13.9733 21.9355H13.9743H13.9915H14.0067H14.0087C14.5741 21.9395 15.3508 21.8239 15.7271 21.7154L16.1771 22.9285C15.8808 23.034 14.8734 23.235 13.9915 23.235ZM16.2671 22.3355L15.901 21.3335C16.337 21.2018 17.0864 20.9184 17.4221 20.7294L17.1986 21.4581L17.9582 21.7094C17.498 21.9375 16.9417 22.1516 16.2671 22.3355Z" fill="black"/>
<path d="M13.9897 2.55305C14.9303 2.55305 15.6828 2.86262 16.0985 3.19328C16.0985 3.19328 16.2219 2.45456 16.6436 1.8023L15.8861 1.88771L15.4896 1.05051L14.7281 1.44048L13.9897 0.714844L13.2534 1.44048L12.4908 1.05051L12.0954 1.88771L11.3379 1.8023C11.7596 2.45456 11.883 3.19328 11.883 3.19328C12.2997 2.86262 13.0501 2.55305 13.9897 2.55305ZM12.061 2.18121L12.2714 2.20333L12.3624 2.01333L12.6274 1.45051L13.1189 1.70277L13.3091 1.7993L13.4608 1.65054L13.9908 1.12791L14.5217 1.65054L14.6734 1.7993L14.8636 1.70277L15.3521 1.45051L15.6201 2.01333L15.7091 2.20333L15.9195 2.18121L16.1197 2.15708C16.0277 2.3631 15.96 2.55806 15.9114 2.7199C15.3814 2.4264 14.6916 2.2596 13.9887 2.2596C13.2888 2.2596 12.6001 2.4264 12.0681 2.7199C12.0185 2.55806 11.9518 2.36212 11.8598 2.15708L12.061 2.18121Z" fill="black"/>
<path d="M25.0254 12.3526C26.2421 12.3526 26.6487 11.1224 26.6659 11.0701L26.8014 10.637L26.3452 10.6511H26.3433C26.1824 10.6511 24.8403 10.6159 23.8885 9.41385L23.7986 9.3023C23.1765 8.51636 22.5869 7.76963 21.5331 7.42891C21.5634 7.40177 21.6069 7.36759 21.6666 7.32938C22.2258 6.96356 22.5515 6.51934 22.6334 6.00376C22.7528 5.22781 22.2552 4.60972 22.2329 4.58461L21.8941 4.16854L21.6828 4.66201C21.6686 4.69317 21.3126 5.48317 20.5641 5.48317H20.5085C20.4569 5.48009 20.4084 5.4781 20.3598 5.47412C20.3861 5.12133 20.3214 4.57556 19.8238 4.06401C19.2261 3.44791 18.4918 3.35547 18.1075 3.35547C17.9022 3.35547 17.7656 3.38058 17.7514 3.38259L17.2396 3.4831L17.5552 3.89617C17.8031 4.21478 18.0276 4.80272 17.7616 5.1103C17.6766 5.20774 17.5017 5.28714 17.3338 5.36654C16.9889 5.52431 16.5186 5.74344 16.5186 6.3022C16.5186 6.66404 16.8007 7.04197 17.3125 7.36356C18.8276 8.31035 19.7621 9.29827 20.1657 10.3888C20.7897 12.0662 19.9755 13.0229 19.1846 13.5265L18.8296 13.7536L19.1401 14.037C19.1816 14.0732 19.5618 14.4059 20.1232 14.4541C20.2294 14.4612 20.3315 14.4672 20.4266 14.4672C20.7866 14.4672 21.0931 14.4109 21.3419 14.3355C21.2731 14.4551 21.1892 14.5767 21.083 14.6994C20.6309 15.22 20.0746 15.4571 19.2746 15.4693L18.9773 15.4743L18.954 15.7708C18.951 15.83 18.9287 16.3798 19.4526 16.8471C19.5325 16.9195 19.6296 16.9788 19.7308 17.0281C19.3757 17.3456 19.0147 17.8984 18.9449 18.8461C18.8862 19.6371 18.6961 19.9296 18.6941 19.9327L18.3654 20.4311L18.9591 20.4391C19.9401 20.4391 20.6916 20.1698 21.2124 19.6371C21.5199 19.3216 21.6959 18.9658 21.8 18.6502C21.971 18.7949 22.1915 18.9216 22.4787 18.9889C22.588 19.014 22.7073 19.0281 22.8357 19.0281C23.1128 19.0281 23.3444 18.9698 23.3707 18.9638L23.75 18.8632L23.5822 18.5115C23.57 18.4834 23.2535 17.7778 23.5943 16.7708C23.7409 16.3356 23.8157 15.9456 23.8522 15.6421C24.0909 15.7658 24.4105 15.8682 24.8241 15.8693C25.7627 15.8693 26.1764 15.1728 26.1956 15.1436L26.3807 14.824L26.0378 14.6833C24.9192 14.222 24.6714 12.9827 24.6219 12.3114C24.723 12.3305 24.8383 12.3486 24.9687 12.3526H25.0254ZM25.9124 14.9798C25.9124 14.9798 25.5847 15.5456 24.8332 15.5456H24.8241C23.9219 15.5406 23.5579 14.9938 23.5579 14.9938C23.5579 14.9938 23.6105 15.7054 23.2848 16.6652C22.8934 17.822 23.2878 18.6492 23.2878 18.6492C23.2878 18.6492 23.0775 18.7055 22.8347 18.7055C22.7417 18.7055 22.6446 18.6964 22.5535 18.6723C21.8 18.4944 21.612 17.813 21.612 17.813C21.612 17.813 21.6817 20.1156 18.9803 20.1156H18.9591C18.9591 20.1156 19.1967 19.7939 19.2675 18.8683C19.396 17.1597 20.5601 16.9256 20.5601 16.9256C20.5601 16.9256 19.9391 16.8481 19.6701 16.6079C19.2493 16.2291 19.2787 15.7908 19.2787 15.7908C20.2294 15.7778 20.8514 15.4562 21.3257 14.9104C21.8395 14.3194 21.9245 13.6833 21.9245 13.6833C21.9245 13.6833 21.4137 14.1436 20.4255 14.1436C20.3386 14.1436 20.2455 14.1396 20.1505 14.1305C19.6832 14.0934 19.3596 13.7979 19.3596 13.7979C20.3882 13.1425 21.1103 11.9988 20.4701 10.2762C19.9573 8.89623 18.7254 7.86508 17.4855 7.08814C17.0728 6.83194 16.8432 6.54746 16.8432 6.3022C16.8432 5.72535 17.6685 5.70727 18.0073 5.31929C18.3978 4.86907 18.153 4.13836 17.8142 3.6992C17.8142 3.6992 17.9284 3.67605 18.1085 3.67605C18.4655 3.67605 19.0835 3.76549 19.5912 4.28811C20.2658 4.9816 19.9856 5.73638 19.9856 5.73638L20.1667 5.77156C20.2749 5.79467 20.3821 5.79869 20.4934 5.80371C20.5177 5.80371 20.5419 5.80476 20.5662 5.80476C21.5462 5.80476 21.9841 4.78665 21.9841 4.78665C21.9841 4.78665 23.0259 6.06001 21.4926 7.05698C21.2286 7.22786 21.1123 7.38568 21.1427 7.55452L21.1669 7.66508L21.2761 7.68416C22.3877 7.98364 22.9501 8.74553 23.6368 9.61186C24.6795 10.9295 26.1551 10.9717 26.3372 10.9717H26.3564C26.3564 10.9717 26.0196 12.028 25.0274 12.028C25.0112 12.028 24.9971 12.028 24.9799 12.027C24.5237 12.0109 24.2901 11.837 24.2901 11.837C24.2901 11.837 24.1111 14.236 25.9124 14.9798Z" fill="black"/>
<path d="M22.8881 7.56352C23.3422 7.80377 23.6062 8.12536 23.8378 8.41077C24.0654 8.68918 24.2819 8.95751 24.6197 9.06906C24.74 9.1103 24.8675 9.12938 24.9969 9.12938C25.5047 9.12938 26.0143 8.82081 26.2076 8.39368L26.4018 7.96556L25.9314 7.93738C25.9092 7.93639 25.3044 7.88213 24.6308 7.19771C24.3536 6.91731 24.0189 6.76953 23.6578 6.76953C23.2168 6.76953 22.8902 6.98866 22.8538 7.01072L22.4209 7.31328L22.8881 7.56352ZM23.6589 7.09316C23.8854 7.09316 24.1494 7.16958 24.3992 7.42583C25.183 8.21684 25.9122 8.26101 25.9122 8.26101C25.7797 8.55249 25.3954 8.80879 24.9979 8.80879C24.9059 8.80879 24.8138 8.79467 24.7218 8.76352C24.1827 8.5826 23.9895 7.77857 23.0419 7.2781C23.0419 7.2781 23.3069 7.09316 23.6589 7.09316Z" fill="black"/>
<path d="M23.1009 11.8328V11.8488C22.8279 9.65984 21.2278 8.07892 19.4478 7.11708C19.2829 7.02963 19.1312 6.95529 18.9836 6.88394C19.5257 6.96732 20.3985 6.9774 21.072 6.39648C21.072 6.39648 20.0414 7.15027 17.9297 6.46585C18.5142 6.8427 19.65 7.37442 20.6868 8.23569C23.2789 10.4991 21.424 12.7071 21.424 12.7071C22.3555 11.7413 22.3939 10.7061 22.1198 9.86088C22.6104 10.6719 22.9239 11.6569 22.8753 12.871C22.8036 14.6107 21.8417 16.1152 20.8293 17.3243C20.3429 17.9112 20.2336 18.6319 20.2336 18.6319C20.2336 18.6319 20.4298 17.9956 20.9931 17.3414C22.0784 16.0791 23.0058 14.7675 23.1272 12.878C23.2395 13.2207 23.7017 14.1745 24.4349 14.5333C24.437 14.5343 23.5156 13.9825 23.1009 11.8328Z" fill="black"/>
<path d="M9.28614 19.9326C9.2851 19.9296 9.09702 19.6371 9.03635 18.8461C8.9655 17.8984 8.60545 17.3456 8.24947 17.0281C8.35263 16.9798 8.44768 16.9205 8.52758 16.8471C9.05051 16.3798 9.02825 15.83 9.02522 15.7708L9.005 15.4743L8.70562 15.4692C7.90761 15.4562 7.35034 15.219 6.89822 14.6994C6.79307 14.5767 6.7081 14.4551 6.63928 14.3355C6.88813 14.4109 7.19258 14.4672 7.55362 14.4672C7.65071 14.4672 7.75084 14.4611 7.85702 14.4541C8.41837 14.4058 8.79869 14.0742 8.84112 14.037L9.15163 13.7536L8.79665 13.5265C8.00271 13.0219 7.19153 12.0651 7.81454 10.3887C8.21812 9.29827 9.15163 8.31034 10.6687 7.36356C11.1805 7.04197 11.4607 6.66403 11.4607 6.30219C11.4607 5.74343 10.9913 5.52336 10.6465 5.36654C10.4786 5.28714 10.3036 5.20773 10.2186 5.11029C9.95163 4.8037 10.1772 4.21479 10.424 3.89617L10.7415 3.4831L10.2278 3.38259C10.2126 3.38058 10.0781 3.35547 9.87173 3.35547C9.48743 3.35547 8.75516 3.44791 8.1564 4.06401C7.65782 4.5766 7.59203 5.12232 7.61737 5.47412C7.56877 5.47809 7.52028 5.48008 7.46969 5.48316H7.41509C6.66463 5.48316 6.30964 4.69317 6.29548 4.66201L6.0841 4.16854L5.74219 4.58461C5.72301 4.60972 5.22338 5.22885 5.34473 6.00376C5.42567 6.51933 5.75133 6.96356 6.31064 7.32937C6.37131 7.36753 6.41379 7.40177 6.44415 7.4289C5.39123 7.76962 4.80266 8.51735 4.1806 9.30329L4.09061 9.41484C3.13991 10.6169 1.79477 10.6521 1.63397 10.6521L1.17578 10.638L1.31535 11.0711C1.33152 11.1234 1.7371 12.3536 2.95481 12.3536L3.0135 12.3515C3.14194 12.3476 3.25722 12.3305 3.36043 12.3104C3.30984 12.9807 3.06204 14.22 1.9424 14.6823L1.60059 14.823L1.78568 15.1425C1.80387 15.1717 2.21856 15.8682 3.15914 15.8682C3.56972 15.8672 3.88932 15.7647 4.12902 15.6411C4.16545 15.9446 4.24028 16.3345 4.38696 16.7697C4.72778 17.7768 4.41027 18.4823 4.39809 18.5105L4.23024 18.8622L4.61046 18.9627C4.63576 18.9688 4.8694 19.0271 5.14552 19.0271C5.27496 19.0271 5.39432 19.013 5.50154 18.9879C5.78974 18.9205 6.01225 18.7939 6.1812 18.6492C6.2843 18.9648 6.46135 19.3205 6.76778 19.6362C7.28967 20.1688 8.04013 20.4381 9.02115 20.4381L9.61588 20.4301L9.28614 19.9326ZM8.99889 20.1166C6.29747 20.1166 6.36629 17.814 6.36629 17.814C6.36629 17.814 6.17812 18.4954 5.42463 18.6733C5.33464 18.6974 5.23854 18.7064 5.14453 18.7064C4.90174 18.7064 4.6924 18.6502 4.6924 18.6502C4.6924 18.6502 5.08485 17.823 4.6934 16.6662C4.36977 15.7064 4.42234 14.9948 4.42234 14.9948C4.42234 14.9948 4.05926 15.5416 3.1561 15.5466H3.14701C2.39551 15.5466 2.06781 14.9808 2.06781 14.9808C3.8681 14.238 3.69111 11.84 3.69111 11.84C3.69111 11.84 3.45752 12.0129 3.00033 12.0299C2.98418 12.031 2.96897 12.031 2.95282 12.031C1.95963 12.031 1.62384 10.9747 1.62384 10.9747H1.64404C1.82712 10.9747 3.30075 10.9325 4.34348 9.61484C5.03019 8.7485 5.59357 7.98766 6.70309 7.68719L6.81434 7.6681L6.83854 7.55755C6.86895 7.3887 6.75362 7.23089 6.48967 7.06006C4.95635 6.06204 5.99809 4.78965 5.99809 4.78965C5.99809 4.78965 6.43402 5.80674 7.41613 5.80674C7.44033 5.80674 7.46259 5.80574 7.48788 5.80574C7.59814 5.79968 7.70741 5.79571 7.81454 5.77255L7.99561 5.73737C7.99561 5.73737 7.71546 4.98259 8.39109 4.28914C8.89881 3.76549 9.51675 3.67708 9.87273 3.67708C10.0538 3.67708 10.1661 3.70017 10.1661 3.70017C9.82825 4.14038 9.58353 4.87005 9.97389 5.32033C10.3117 5.70726 11.136 5.72634 11.136 6.30324C11.136 6.54746 10.9064 6.83288 10.4937 7.08917C9.25275 7.86612 8.0209 8.89727 7.5091 10.2771C6.86994 11.9998 7.59109 13.1425 8.62169 13.7988C8.62169 13.7988 8.29802 14.0943 7.82974 14.1315C7.73469 14.1406 7.64266 14.1445 7.55362 14.1445C6.56649 14.1445 6.05578 13.6843 6.05578 13.6843C6.05578 13.6843 6.1407 14.3204 6.65146 14.9114C7.12887 15.4571 7.75084 15.7788 8.7016 15.7918C8.7016 15.7918 8.73191 16.23 8.31119 16.6089C8.04112 16.8481 7.42015 16.9265 7.42015 16.9265C7.42015 16.9265 8.58527 17.1607 8.71268 18.8692C8.78249 19.7949 9.01812 20.1166 9.01812 20.1166H8.99889Z" fill="black"/>
<path d="M2.98188 9.13034C3.11231 9.13034 3.23977 9.11126 3.36016 9.07002C3.69994 8.95847 3.91539 8.69009 4.14297 8.41173C4.37557 8.12632 4.63753 7.80468 5.09164 7.56448L5.55887 7.31519L5.12503 7.01273C5.08861 6.98962 4.76295 6.77148 4.323 6.77148C3.96091 6.77148 3.62516 6.91827 3.34899 7.19966C2.67544 7.88309 2.07167 7.93839 2.04936 7.93938L1.5791 7.96647L1.77225 8.39563C1.96643 8.82078 2.47515 9.13034 2.98188 9.13034ZM3.58064 7.42679C3.83147 7.17054 4.09542 7.09412 4.323 7.09412C4.67291 7.09412 4.93795 7.27901 4.93795 7.27901C3.99122 7.78058 3.79703 8.58356 3.25597 8.76453C3.16697 8.79563 3.0739 8.80975 2.98188 8.80975C2.58441 8.80975 2.20007 8.55444 2.06859 8.26197C2.06859 8.26098 2.79679 8.21675 3.58064 7.42679Z" fill="black"/>
<path d="M5.10552 12.8729C5.05488 11.6588 5.36847 10.6739 5.85995 9.86283C5.58592 10.7081 5.62333 11.7432 6.55585 12.7091C6.55585 12.7091 4.70095 10.501 7.29414 8.23764C8.33185 7.37638 9.46661 6.84465 10.0502 6.4678C7.93946 7.15223 6.90885 6.39844 6.90885 6.39844C7.58239 6.97936 8.45523 6.96927 8.99734 6.88485C8.85071 6.9562 8.69697 7.03064 8.53409 7.11804C6.75203 8.07988 5.15302 9.66085 4.87898 11.8498V11.8327C4.46527 13.9825 3.54492 14.5342 3.54492 14.5342C4.2772 14.1754 4.73836 13.2227 4.85066 12.8789C4.973 14.7684 5.90045 16.08 6.98567 17.3423C7.549 17.9966 7.74726 18.6328 7.74726 18.6328C7.74726 18.6328 7.637 17.9122 7.1485 17.3252C6.13811 16.1182 5.17628 14.6126 5.10552 12.8729Z" fill="black"/>
<path d="M13.3809 8.44336V8.87755C13.5316 8.69558 13.8229 8.7328 13.8229 8.7328V9.35894C13.8229 9.35894 13.8128 9.66646 13.7025 9.80018H14.018H14.3326C14.2244 9.66746 14.2133 9.35894 14.2133 9.35894V8.7328C14.2133 8.7328 14.5045 8.69558 14.6542 8.87755V8.44336H14.018H13.3809Z" fill="black"/>
<path d="M13.1094 5.86951C13.3106 6.02832 13.427 6.05445 13.431 6.05743L13.5099 6.09361V5.68457L12.7695 5.375C12.7695 5.37604 12.7766 5.61222 13.1094 5.86951Z" fill="black"/>
<path d="M14.8702 5.86951C15.205 5.61222 15.211 5.375 15.211 5.375L14.4707 5.68457V6.09361L14.5486 6.05743C14.5537 6.05445 14.669 6.02832 14.8702 5.86951Z" fill="black"/>
<path d="M16.2041 4.20132C16.2041 3.58125 15.1532 3.02344 13.9932 3.02344H13.9922H13.9891H13.986C12.826 3.02344 11.7752 3.58125 11.7752 4.20132L11.7985 4.35412L12.2616 6.99636L11.7964 7.26468L10.5929 7.96322H10.5969C10.5969 7.96322 10.3259 8.10091 10.2005 8.18632C9.74227 8.50295 9.64518 8.96421 9.91121 9.15522C9.97695 8.77927 10.2763 8.38533 10.8366 8.38533C11.2402 8.38533 11.5476 8.59239 11.7964 8.90295C11.8601 8.98131 11.9208 9.06473 11.9774 9.15522C12.0473 9.26876 12.117 9.36824 12.1868 9.46473H9.08691C9.31449 9.91999 9.53089 10.4024 9.53089 10.9261V17.7442C9.53089 19.3945 10.8083 20.1825 12.1899 20.1825C13.2579 20.1825 13.4015 20.1343 13.9911 20.7172C14.5777 20.1333 14.7214 20.1825 15.7904 20.1825C17.173 20.1825 18.4483 19.3945 18.4483 17.7442V10.9261C18.4483 10.4024 18.6648 9.91999 18.8933 9.46473H15.7925C15.8612 9.36928 15.931 9.26876 16.0008 9.15522C16.0584 9.06473 16.1181 8.98131 16.1808 8.90295C16.4317 8.59134 16.738 8.38533 17.1416 8.38533C17.7019 8.38533 18.0003 8.77828 18.067 9.15522C18.333 8.96421 18.237 8.50295 17.7758 8.18632C17.6524 8.10091 17.3813 7.96322 17.3813 7.96322H17.3854L16.1818 7.26468L15.7186 6.99636L16.1818 4.35412L16.2041 4.20132ZM12.2313 4.50888L13.8597 5.05763V7.59939L12.6612 6.97127L12.2313 4.50888ZM12.5681 9.90796C12.8351 10.1723 13.0971 10.3361 13.3459 10.4266C13.3135 10.5542 13.271 10.8175 13.3914 11.0798C13.4895 11.2909 13.6675 11.4537 13.9234 11.5623C13.9517 11.8236 14.1176 12.2165 14.5777 12.3904C14.3765 12.5924 14.1802 12.7823 14.1004 12.8598L12.2343 12.8306C12.1919 12.8095 12.1201 12.7623 12.0877 12.6949C12.0836 12.6859 12.0776 12.6809 12.0745 12.6708L12.379 12.72C12.3861 12.7211 12.3921 12.7211 12.3982 12.7211C12.4569 12.7211 12.5084 12.6809 12.5186 12.6206C12.5287 12.5532 12.4832 12.4919 12.4174 12.4819L12.0432 12.4236L12.4589 10.9975L12.0654 10.1743L11.4343 10.8376L11.3959 12.3211L10.9721 12.2547C10.9063 12.2417 10.8437 12.2899 10.8326 12.3553C10.8225 12.4206 10.8669 12.4819 10.9337 12.494L11.1117 12.5211C11.048 12.5573 11.0065 12.5854 11.0014 12.5894L10.9651 12.6145L10.9549 12.6588C10.8518 13.0748 11.0854 13.4699 11.3372 13.6467L11.3281 13.699C11.3181 13.7633 11.3322 13.8256 11.3706 13.8779C11.407 13.9312 11.4637 13.9633 11.5264 13.9743C11.5395 13.9764 11.5537 13.9774 11.5658 13.9774C11.675 13.9774 11.7701 13.902 11.7974 13.7925C11.8915 13.8035 11.9774 13.8055 12.0361 13.8055H12.0857L14.5343 14.2447L14.5757 14.2176C14.7709 14.0819 15.5143 13.5432 15.758 13.3653C15.8248 13.4226 15.8996 13.4748 15.9907 13.5181C15.9118 13.7814 15.9067 14.1864 16.2192 14.506H9.97894V10.927C9.97894 10.5803 9.87678 10.2316 9.75643 9.91H12.5681V9.90796ZM15.5942 13.1823C15.3464 13.3633 14.7092 13.8256 14.4786 13.9864L12.2536 13.5895C12.2586 13.5693 12.2637 13.5502 12.2687 13.5301C12.2981 13.4156 12.3274 13.2588 12.3294 13.0748L14.1995 13.105L14.2349 13.0688C14.2632 13.0407 14.8559 12.4718 15.1583 12.1441C15.2301 12.2336 15.3201 12.3191 15.4375 12.3944C15.397 12.6116 15.4142 12.9211 15.5942 13.1823ZM11.8692 12.7995C11.9218 12.909 12.0169 12.9824 12.0826 13.0236C12.0807 13.1261 12.0705 13.2859 12.0432 13.4266C12.0371 13.4578 12.029 13.4869 12.0199 13.5161C12.0149 13.5342 12.0098 13.5493 12.0058 13.5613C11.9077 13.5613 11.7145 13.5493 11.5567 13.492C11.3818 13.4276 11.1208 13.109 11.1815 12.7582C11.2573 12.712 11.4323 12.6145 11.5961 12.6145C11.7226 12.6136 11.8086 12.6728 11.8692 12.7995ZM11.6376 12.3582L11.675 10.9341L11.9967 10.5954L12.199 11.0155L11.8005 12.3823L11.6376 12.3582ZM15.574 19.7413C15.4526 19.7413 15.3404 19.7433 15.2392 19.7473L15.5042 18.9282C15.5456 18.8146 15.3363 18.6689 15.2503 18.5413C15.3808 18.6227 15.7186 18.8005 15.8814 18.8719C15.8642 18.8981 15.574 19.7413 15.574 19.7413ZM16.4053 18.8106L16.2324 19.7071C16.1221 19.7222 16.0048 19.7303 15.8845 19.7352L16.0665 18.8729C16.1212 18.6166 15.4283 18.5372 15.0865 18.0337C14.9196 18.2207 14.6051 18.2759 14.2895 18.2759C14.0012 18.2759 13.7131 18.2297 13.538 18.1955C13.4935 18.1885 13.451 18.1835 13.4096 18.1835C13.3084 18.1835 13.2164 18.2146 13.1527 18.3212L13.1021 18.4056L12.1585 18.1844L11.9238 18.5704C11.8905 18.6327 11.8885 18.686 11.9421 18.7443L12.0058 18.8136C11.9623 18.9503 11.7661 19.1564 11.7661 19.1564L11.6255 18.9825C11.5142 18.8588 11.5324 18.6338 11.6488 18.4247L12.023 17.7966L12.822 17.9111L12.6975 17.6297C12.5307 17.2578 12.7846 16.7844 12.8118 16.5121C12.8027 16.5945 12.7269 16.6126 12.6379 16.6126C12.557 16.6126 12.467 16.5976 12.4073 16.5976C12.3841 16.5976 12.3638 16.5995 12.3527 16.6075L12.1363 16.7382L11.9653 16.5885C11.9451 16.5593 11.938 16.492 11.9886 16.4417L12.3841 16.0015L11.9168 15.4598L12.5711 15.7865L12.7704 15.5462C12.825 15.5995 12.8017 15.7392 12.8017 15.7392C13.006 15.7442 13.5785 16.0588 13.6089 16.7925C13.6109 16.8146 13.6109 16.8397 13.6109 16.8638C13.6109 16.8638 13.616 16.8729 13.626 16.888C13.6665 16.9433 13.7777 17.085 13.9193 17.098L14.8235 17.1865H14.8275C14.9267 17.1865 15.1239 17.0709 15.3768 17.0709C15.5143 17.0709 15.668 17.1061 15.8319 17.2086C15.8319 17.2086 15.9138 17.1443 16.0473 17.1372C16.0574 17.1362 16.0685 17.1362 16.0787 17.1362C16.4842 17.1362 16.6521 17.5001 16.8696 17.8025C17.0334 18.0327 17.2518 18.3744 17.2518 18.3744C17.171 18.4699 17.0961 18.5222 16.9707 18.5222C16.9363 18.5222 16.8969 18.5191 16.8544 18.5111C16.4195 18.4317 16.3568 17.5432 16.109 17.4729C16.0959 17.4689 16.0817 17.4679 16.0696 17.4679C15.9896 17.4679 15.9542 17.5382 15.9542 17.5382C16.0675 17.8408 16.0018 17.9634 16.1231 18.1966C16.2142 18.3694 16.376 18.5121 16.4427 18.5795C16.4427 18.5815 16.4246 18.7121 16.4053 18.8106ZM11.5496 17.9624L11.5911 18.0659C11.5638 18.1564 11.2502 18.285 11.2502 18.285L11.1825 18.1383C11.1107 17.9815 11.1259 17.7171 11.3444 17.5553L11.852 17.2478L12.3901 17.3614C12.38 17.5312 12.4821 17.6579 12.4821 17.6579L11.9178 17.5503L11.58 17.7824C11.5233 17.8217 11.5193 17.895 11.5496 17.9624ZM16.4903 19.6579L16.645 18.8558C16.6531 18.8086 16.6632 18.7533 16.6703 18.7071C16.7138 18.7252 16.7603 18.7403 16.8109 18.7493C16.8685 18.7603 16.9221 18.7654 16.9707 18.7654C17.2074 18.7654 17.3449 18.6418 17.4369 18.5362L17.5563 18.3985L17.4592 18.2478C17.4501 18.2327 17.2357 17.895 17.0698 17.6638C17.0375 17.6186 17.0061 17.5734 16.9747 17.5242C16.7866 17.2448 16.551 16.8941 16.0787 16.8941L16.0362 16.895C15.9583 16.9 15.8915 16.9151 15.8379 16.9352C15.6893 16.8659 15.5366 16.8307 15.3778 16.8307C15.1826 16.8307 15.0177 16.884 14.9085 16.9212C14.8771 16.9302 14.8488 16.9402 14.8265 16.9442L13.9436 16.8578C13.9325 16.8558 13.8961 16.8347 13.8526 16.7824V16.7784L14.0437 16.7021C13.9902 16.0699 13.3792 15.6809 13.0384 15.5493C13.0233 15.486 12.9929 15.4226 12.9393 15.3714L12.7491 15.1925L12.5823 15.3915L12.5004 15.493L11.2644 14.9885L12.0685 15.9914L11.7509 16.4689C11.6346 16.5915 11.763 16.7141 11.763 16.7141L12.0907 16.9382L12.4306 16.8126C12.4427 16.8126 12.4528 16.8156 12.464 16.8166C12.4478 16.8679 12.4265 17.0689 12.4124 17.1252L11.8227 17.0096L11.2027 17.3574C10.8841 17.5895 10.8407 17.9744 10.959 18.2378L11.0277 18.3875L11.1259 18.5985L11.3423 18.5091C11.3453 18.5081 11.3484 18.5071 11.3504 18.5051C11.2725 18.7523 11.3039 18.9875 11.4434 19.1423L11.5749 19.3071L11.7499 19.5272L11.9421 19.3222C11.9987 19.2659 12.1818 19.0619 12.2384 18.887L12.2799 18.7533L12.1858 18.6508L12.1706 18.6327L12.2758 18.4599L13.0455 18.6397L13.2184 18.6789L13.3105 18.5282L13.3611 18.4458C13.3701 18.4287 13.3732 18.4257 13.4086 18.4257C13.4359 18.4257 13.4632 18.4287 13.4925 18.4348C13.7828 18.489 14.0508 18.5162 14.2885 18.5162C14.5191 18.5162 14.6566 18.5071 14.8215 18.4529C14.8215 18.4529 15.2351 18.9191 15.2493 18.9373L14.9965 19.7131L14.9853 19.7604C14.5059 19.7985 14.2723 19.9031 13.9902 20.1835C13.5805 19.7795 13.2902 19.7373 12.1888 19.7373C10.871 19.7373 9.9779 18.9694 9.9779 17.7433V14.7452H18.0003L18.0023 17.7433C18.0033 18.7382 17.4157 19.4317 16.4903 19.6579ZM18.2249 9.90796C18.1024 10.2296 18.0003 10.5783 18.0003 10.9251L18.0013 13.1623C17.531 13.0839 17.4754 12.5804 17.4733 12.5582L17.4643 12.4557L17.3631 12.4467C17.1588 12.4276 17.0233 12.3412 16.909 12.2306C16.6784 12.0014 16.6774 11.6296 16.6784 11.6266C16.6754 11.6457 16.4246 11.9944 16.7158 12.3753C16.8382 12.5361 17.0152 12.6346 17.2448 12.6739C17.2984 12.9532 17.5077 13.3472 18.0013 13.4075V14.503H16.6137C15.9735 14.1492 16.2445 13.5261 16.2576 13.5L16.3123 13.3814L16.1899 13.3352C15.4971 13.0798 15.6873 12.3924 15.6973 12.3633L15.7257 12.2628L15.6317 12.2186C15.0591 11.9553 15.1371 11.2447 15.1441 11.2155C14.9682 11.3573 14.9045 11.6467 15.0258 11.9301C14.9601 12.0045 14.8721 12.0949 14.776 12.1934C14.1833 12.0437 14.1651 11.502 14.1651 11.4769L14.1641 11.3934L14.0862 11.3633C13.8546 11.2778 13.6958 11.1502 13.6179 10.9783C13.5299 10.7884 13.5613 10.5894 13.5855 10.4939C13.6533 10.509 13.7211 10.52 13.7858 10.5251C13.8526 10.5321 13.9213 10.5361 13.9902 10.5361H13.9942H13.9993C14.068 10.5361 14.1358 10.5321 14.2025 10.5251C14.5717 10.4889 14.9853 10.3311 15.4162 9.90692H18.2249V9.90796ZM16.0625 7.6466L16.6106 7.96322H16.6187L16.7563 8.04262C16.4468 8.12804 16.2101 8.28183 16.0119 8.48381C16.0048 8.48988 15.9977 8.49788 15.9907 8.50493C15.9452 8.55318 15.8996 8.60546 15.8572 8.65867C15.8491 8.66876 15.841 8.67979 15.8319 8.69087C15.7894 8.74513 15.75 8.80044 15.7115 8.85872C15.7054 8.86876 15.6983 8.8788 15.6913 8.88784C15.6458 8.95517 15.6023 9.02757 15.5588 9.1019C15.1684 9.77028 14.5454 10.1693 13.9911 10.1703C13.4379 10.1693 12.8149 9.77028 12.4245 9.1019C12.382 9.0296 12.3395 8.95919 12.294 8.89082C12.2849 8.8778 12.2768 8.86473 12.2687 8.8537C12.2303 8.7984 12.1919 8.74414 12.1524 8.69286C12.1423 8.6788 12.1332 8.66777 12.1231 8.65569C12.0807 8.60441 12.0371 8.55318 11.9936 8.50593C11.9845 8.49892 11.9785 8.48988 11.9694 8.48178C11.7701 8.27979 11.5345 8.127 11.224 8.04262L11.3635 7.96322H11.3696L11.9178 7.6466L12.4812 7.32605L13.986 8.14006L13.9891 8.13708L13.9932 8.14006L15.4981 7.32605L16.0625 7.6466ZM15.3201 6.97221L14.1206 7.60034V5.05763L15.7479 4.50888L15.3201 6.97221ZM13.9902 4.77825L12.206 4.07772C12.3578 3.72092 13.0576 3.4174 13.9902 3.41641C14.9236 3.4174 15.6235 3.72092 15.7742 4.07772L13.9902 4.77825Z" fill="black"/>
</g>
<defs>
<clipPath id="clip0_4733_5031">
<rect width="27.0807" height="24" fill="white" transform="translate(0.459961)"/>
</clipPath>
</defs>
</svg>
