<svg width="24" height="14" viewBox="0 0 24 14" fill="none" xmlns="http://www.w3.org/2000/svg">
<path fill-rule="evenodd" clip-rule="evenodd" d="M3.67491 0H1.09536C0.358353 0 0.210938 0.346916 0.210938 0.729338C0.210938 1.41246 1.08548 4.80038 4.28288 9.2812C6.41453 12.3413 9.41774 14 12.1506 14C13.7903 14 13.9931 13.6316 13.9931 12.997V10.6842C13.9931 9.94733 14.1485 9.80026 14.6676 9.80026C15.0503 9.80026 15.7062 9.99154 17.2365 11.4669C18.9856 13.2155 19.2739 14 20.2576 14H22.8372C23.5743 14 23.9427 13.6316 23.7302 12.9045C23.4975 12.1799 22.6625 11.1285 21.5544 9.88233C20.9531 9.17192 20.0513 8.40694 19.778 8.02437C19.3955 7.5326 19.5048 7.31397 19.778 6.8769C19.778 6.8769 22.9209 2.45065 23.2488 0.948043C23.4127 0.401557 23.2488 0 22.4687 0H19.8891C19.2333 0 18.9308 0.346916 18.7668 0.729338C18.7668 0.729338 17.4551 3.92605 15.5968 6.00257C14.9955 6.60362 14.7223 6.79491 14.3943 6.79491C14.2304 6.79491 13.993 6.60362 13.993 6.05728V0.948043C13.993 0.292274 13.8027 0 13.256 0H9.20242C8.79257 0 8.54603 0.304293 8.54603 0.592768C8.54603 1.21434 9.47522 1.35775 9.57096 3.10635V6.90419C9.57096 7.7368 9.4205 7.88781 9.09259 7.88781C8.21811 7.88781 6.09089 4.6768 4.8293 1.00255C4.5822 0.288475 4.3342 0 3.67491 0Z" fill="white"/>
</svg>
