<svg width="25" height="24" viewBox="0 0 25 24" fill="none" xmlns="http://www.w3.org/2000/svg">
<path d="M2.54004 12C2.54004 6.477 7.01604 2 12.54 2C18.062 2 22.54 6.477 22.54 12C22.54 17.523 18.062 22 12.54 22C7.01604 22 2.54004 17.523 2.54004 12Z" fill="#FC3F1D"/>
<path d="M13.8202 7.66459H12.8962C11.2022 7.66459 10.3112 8.52259 10.3112 9.78759C10.3112 11.2176 10.9272 11.8876 12.1922 12.7466L13.2372 13.4506L10.2342 17.9376H7.99023L10.6852 13.9236C9.13524 12.8126 8.26523 11.7336 8.26523 9.90859C8.26523 7.62059 9.86023 6.05859 12.8852 6.05859H15.8882V17.9266H13.8202V7.66459Z" fill="white"/>
</svg>
